<svg width="383" height="512" viewBox="0 0 383 512" fill="none" xmlns="http://www.w3.org/2000/svg">
<path d="M67.9996 511.492L67.0485 509.598C79.8019 502.17 95.6742 492.926 103.964 477.756C112.137 462.802 112.32 442.496 104.443 424.761C97.7394 409.668 85.4252 396.146 68.8319 385.656C65.5589 383.587 62.1231 381.626 58.8004 379.729C50.7689 375.146 42.464 370.405 35.616 363.68C26.1844 354.418 19.0482 338.874 24.367 325.029C26.1163 320.61 28.9811 316.808 32.6361 314.054C36.2912 311.3 40.59 309.705 45.0445 309.45L45.1573 311.6C41.0765 311.833 37.1379 313.294 33.7888 315.815C30.4396 318.337 27.8139 321.819 26.2096 325.867C21.2669 338.733 28.0482 353.333 36.9637 362.089C43.6244 368.63 51.8155 373.305 59.7369 377.826C63.0785 379.733 66.5341 381.706 69.8446 383.799C86.7831 394.507 99.371 408.35 106.247 423.832C114.408 442.204 114.194 463.286 105.688 478.849C97.1154 494.535 80.9716 503.938 67.9996 511.492Z" fill="#F1F1F1"/>
<path d="M57.7197 320.801C67.3847 320.801 75.2197 316.703 75.2197 311.648C75.2197 306.592 67.3847 302.494 57.7197 302.494C48.0547 302.494 40.2197 306.592 40.2197 311.648C40.2197 316.703 48.0547 320.801 57.7197 320.801Z" fill="#F1F1F1"/>
<path d="M71.7197 381.108C81.3847 381.108 89.2197 377.009 89.2197 371.954C89.2197 366.899 81.3847 362.8 71.7197 362.8C62.0547 362.8 54.2197 366.899 54.2197 371.954C54.2197 377.009 62.0547 381.108 71.7197 381.108Z" fill="#F1F1F1"/>
<path d="M39.7197 390.8C49.3847 390.8 57.2197 386.701 57.2197 381.646C57.2197 376.591 49.3847 372.492 39.7197 372.492C30.0547 372.492 22.2197 376.591 22.2197 381.646C22.2197 386.701 30.0547 390.8 39.7197 390.8Z" fill="#F1F1F1"/>
<path d="M89.7197 441.414C99.3847 441.414 107.22 437.316 107.22 432.26C107.22 427.205 99.3847 423.107 89.7197 423.107C80.0547 423.107 72.2197 427.205 72.2197 432.26C72.2197 437.316 80.0547 441.414 89.7197 441.414Z" fill="#F1F1F1"/>
<path d="M124.72 441.414C134.385 441.414 142.22 437.316 142.22 432.26C142.22 427.205 134.385 423.107 124.72 423.107C115.055 423.107 107.22 427.205 107.22 432.26C107.22 437.316 115.055 441.414 124.72 441.414Z" fill="#F1F1F1"/>
<path d="M163.436 498.361L175.696 498.36L181.528 447.436L163.434 447.437L163.436 498.361Z" fill="#A0616A"/>
<path d="M160.309 494.05L184.453 494.049H184.454C188.534 494.05 192.448 495.795 195.333 498.903C198.219 502.01 199.84 506.224 199.84 510.619V511.157L160.309 511.159L160.309 494.05Z" fill="#2F2E41"/>
<path d="M209.436 498.361L221.696 498.36L227.528 447.436L209.434 447.437L209.436 498.361Z" fill="#A0616A"/>
<path d="M206.309 494.05L230.453 494.049H230.454C234.534 494.05 238.448 495.795 241.333 498.903C244.219 502.01 245.84 506.224 245.84 510.619V511.157L206.309 511.159L206.309 494.05Z" fill="#2F2E41"/>
<path d="M126.236 297.134C127.24 295.977 127.995 294.597 128.45 293.092C128.904 291.586 129.047 289.992 128.867 288.42C128.688 286.849 128.191 285.339 127.411 283.997C126.631 282.655 125.587 281.514 124.353 280.654L132.871 243.28L115.379 249.992L109.972 284.454C108.767 286.782 108.396 289.505 108.931 292.108C109.466 294.71 110.869 297.011 112.874 298.574C114.879 300.137 117.346 300.854 119.809 300.588C122.272 300.323 124.559 299.094 126.236 297.134Z" fill="#9E616A"/>
<path d="M256.378 293.904C255.375 292.746 254.619 291.367 254.164 289.861C253.71 288.356 253.567 286.761 253.747 285.19C253.926 283.618 254.424 282.109 255.204 280.767C255.984 279.425 257.027 278.283 258.261 277.423L249.743 240.049L267.235 246.762L272.643 281.223C273.848 283.551 274.218 286.275 273.683 288.877C273.148 291.479 271.745 293.78 269.74 295.343C267.736 296.906 265.268 297.623 262.805 297.358C260.342 297.092 258.056 295.863 256.378 293.904Z" fill="#9E616A"/>
<path d="M142.367 270.937L159.36 485.309L184.224 482.868L194.175 317.187L203.033 382.79L204.807 486.997L227.307 485.381L239.801 373.276L236.736 264.707L151.319 255.391L142.367 270.937Z" fill="#2F2E41"/>
<path d="M189.112 75.8619C203.353 75.8619 214.898 63.4295 214.898 48.0934C214.898 32.7572 203.353 20.3248 189.112 20.3248C174.871 20.3248 163.326 32.7572 163.326 48.0934C163.326 63.4295 174.871 75.8619 189.112 75.8619Z" fill="#A0616A"/>
<path d="M180.947 25.8784C180.947 25.8784 192.98 29.3494 199.211 30.7379C205.443 32.1263 204.798 28.1924 204.798 28.1924C204.798 28.1924 212.964 29.3494 212.534 28.4238C212.104 27.4982 215.972 22.6387 211.46 17.085C206.947 11.5313 208.236 7.36603 208.236 7.36603H204.369L203.294 5.74618H197.277C197.277 5.74618 190.625 -0.535348 178.807 1.31583C166.988 3.16702 153.012 8.06022 151.723 15.6966C151.548 16.7324 151.317 17.8831 151.05 19.0985C147.818 33.7913 154.685 47.5386 161.807 60.545C163.557 63.7415 172.023 70.7117 171.807 65.9295C171.59 61.1473 164.186 50.4073 169.343 49.7131C174.5 49.0188 183.31 34.9032 180.947 25.8784Z" fill="#2F2E41"/>
<path d="M162.28 85.3475H207.692L239.801 267.963C239.801 267.963 211.807 270.54 195.807 277.002C179.807 283.463 153.209 262.242 153.209 262.242L162.28 85.3475Z" fill="#536DFE"/>
<path d="M167.949 105.97V85.3477L162.807 85.314L125.24 111.036L133.392 251.962C133.392 251.962 143.04 298.977 157.674 298.489C172.307 298.001 183.591 130.395 167.949 105.97Z" fill="#2F2E41"/>
<path d="M137.307 114.928L125.24 111.036C125.24 111.036 116.307 113.852 116.307 123.544C116.307 133.236 108.61 270.936 108.61 270.936L133.061 273.264L138.307 203.234L137.307 114.928Z" fill="#2F2E41"/>
<path d="M204.307 98.7751L201.902 85.3476L208.807 84.2369L233.807 95.0059C233.807 95.0059 256.307 272.156 246.307 277.54C236.307 282.925 229.555 278.753 229.555 278.753C229.555 278.753 196.664 148.097 202.486 130.436L204.307 98.7751Z" fill="#2F2E41"/>
<path d="M216.307 97.6981L220.573 95.6983C220.573 95.6983 233.096 89.0154 240.201 102.51C247.307 116.005 272.307 266.771 272.307 266.771L251.736 270.937L236.358 216.679L216.307 97.6981Z" fill="#2F2E41"/>
<path d="M382 511.765H1C0.734784 511.765 0.480429 511.651 0.292892 511.449C0.105356 511.247 0 510.974 0 510.688C0 510.403 0.105356 510.129 0.292892 509.927C0.480429 509.725 0.734784 509.612 1 509.612H382C382.265 509.612 382.52 509.725 382.707 509.927C382.895 510.129 383 510.403 383 510.688C383 510.974 382.895 511.247 382.707 511.449C382.52 511.651 382.265 511.765 382 511.765Z" fill="#CACACA"/>
</svg>
