<svg width="24" height="24" viewBox="0 0 24 24" fill="none" xmlns="http://www.w3.org/2000/svg">
<path d="M12 6C10.772 6 0 5.916 0 3C0 0.0840001 10.772 0 12 0C13.228 0 24 0.0840001 24 3C24 5.916 13.228 6 12 6ZM1.588 3C2.32 3.568 5.833 4.5 12 4.5C18.167 4.5 21.68 3.568 22.412 3C21.68 2.432 18.167 1.5 12 1.5C5.833 1.5 2.32 2.432 1.588 3ZM22.527 3.116H22.537H22.527Z" fill="#536DFE"/>
<path d="M12 12C10.772 12 0 11.916 0 9C0 8.586 0.336 8.25 0.75 8.25C1.135 8.25 1.452 8.54 1.495 8.914C1.957 9.467 5.507 10.5 12 10.5C18.493 10.5 22.043 9.467 22.505 8.914C22.548 8.54 22.865 8.25 23.25 8.25C23.664 8.25 24 8.586 24 9C24 11.916 13.228 12 12 12ZM22.5 8.999C22.5 9 22.5 9 22.5 8.999V8.999ZM1.5 8.999C1.5 9 1.5 9 1.5 8.999V8.999Z" fill="#536DFE"/>
<path d="M12 18C10.772 18 0 17.916 0 15C0 14.586 0.336 14.25 0.75 14.25C1.135 14.25 1.452 14.54 1.495 14.914C1.957 15.467 5.507 16.5 12 16.5C18.493 16.5 22.043 15.467 22.505 14.914C22.548 14.54 22.865 14.25 23.25 14.25C23.664 14.25 24 14.586 24 15C24 17.916 13.228 18 12 18ZM22.5 14.999C22.5 15 22.5 15 22.5 14.999V14.999ZM1.5 14.999C1.5 15 1.5 15 1.5 14.999V14.999Z" fill="#536DFE"/>
<path d="M12 24C10.772 24 0 23.916 0 21V3C0 2.586 0.336 2.25 0.75 2.25C1.164 2.25 1.5 2.586 1.5 3V20.919C1.981 21.475 5.53 22.5 12 22.5C18.47 22.5 22.019 21.475 22.5 20.919V3C22.5 2.586 22.836 2.25 23.25 2.25C23.664 2.25 24 2.586 24 3V21C24 23.916 13.228 24 12 24Z" fill="#536DFE"/>
<path d="M5 15C5.55228 15 6 14.5523 6 14C6 13.4477 5.55228 13 5 13C4.44771 13 4 13.4477 4 14C4 14.5523 4.44771 15 5 15Z" fill="#536DFE"/>
<path d="M5 9C5.55228 9 6 8.55228 6 8C6 7.44771 5.55228 7 5 7C4.44771 7 4 7.44771 4 8C4 8.55228 4.44771 9 5 9Z" fill="#536DFE"/>
<path d="M5 21C5.55228 21 6 20.5523 6 20C6 19.4477 5.55228 19 5 19C4.44771 19 4 19.4477 4 20C4 20.5523 4.44771 21 5 21Z" fill="#536DFE"/>
</svg>
