<svg width="389" height="254" viewBox="0 0 389 254" fill="none" xmlns="http://www.w3.org/2000/svg">
<g clip-path="url(#clip0)">
<path opacity="0.1" d="M201.192 45.6799C176.625 49.8298 152.092 48.0508 128.492 45.4631C104.892 42.8754 81.351 39.4963 56.7734 40.5148C40.9632 41.1686 23.3562 44.3 12.317 53.4017C1.6908 62.1558 0.0350848 73.969 0.0144314 84.6329C-0.0131065 92.6541 0.682224 100.954 6.3688 107.344C10.3205 111.776 16.4029 114.952 20.9845 119.044C36.9255 133.255 32.0788 155.633 21.6179 174.658C16.7093 183.585 10.706 192.363 7.3636 201.499C4.02119 210.635 3.57714 220.425 9.55975 227.875C15.4873 235.263 26.9534 239.427 38.9082 241.584C63.1898 245.968 90.2423 243.246 116.417 239.557C174.346 231.364 231.677 218.591 288.883 205.848C310.05 201.131 331.309 196.392 351.701 189.593C363.026 185.808 374.557 181.097 381.872 173.764C391.166 164.473 391.4 151.765 382.443 144.171C367.414 131.439 333.398 134.264 321.774 119.708C315.378 111.694 318.163 100.809 323.254 91.1951C334.169 70.5761 355.267 50.2049 352.534 29.6479C350.647 15.5394 336.255 3.86386 316.965 0.821944C296.745 -2.3645 270.777 3.67804 259.135 17.8759C247.167 32.504 222.885 42.0048 201.192 45.6799Z" fill="#536DFE"/>
<path d="M221.484 123.617H123.921V146.201H221.484V123.617Z" fill="#565661"/>
<path opacity="0.1" d="M221.484 123.617H123.921V146.201H221.484V123.617Z" fill="black"/>
<path d="M135.593 146.944L136.278 207.236L126.894 230.917L126.168 146.944H135.593Z" fill="#BCBEC9"/>
<path d="M124.949 127.953L219.938 128.524V145.344H124.949V127.953Z" fill="#565661"/>
<path d="M211.811 146.944L219.938 148.09V230.002L211.811 204.947V146.944Z" fill="#BCBEC9"/>
<path d="M268.804 124.522H223.025V221.767H268.804V124.522Z" fill="#EFEFF0"/>
<path d="M265.142 127.224H226.688V201.974H265.142V127.224Z" fill="#565661"/>
<path opacity="0.1" d="M265.142 127.224H226.688V201.974H265.142V127.224Z" fill="black"/>
<path d="M265.142 128.755H226.688V145.344H265.142V128.755Z" fill="#565661"/>
<path d="M265.142 146.944H226.688V182.181H265.142V146.944Z" fill="#565661"/>
<path d="M265.142 184.356H226.688V219.593H265.142V184.356Z" fill="#565661"/>
<path opacity="0.1" d="M265.142 184.356H226.688V219.593H265.142V184.356Z" fill="black"/>
<path d="M228.293 228.099C229.662 228.099 230.771 226.682 230.771 224.933C230.771 223.185 229.662 221.768 228.293 221.768C226.924 221.768 225.814 223.185 225.814 224.933C225.814 226.682 226.924 228.099 228.293 228.099Z" fill="#565661"/>
<path d="M262.663 228.251C264.032 228.251 265.141 226.833 265.141 225.085C265.141 223.336 264.032 221.919 262.663 221.919C261.294 221.919 260.185 223.336 260.185 225.085C260.185 226.833 261.294 228.251 262.663 228.251Z" fill="#565661"/>
<path d="M123.577 230.917H126.895L125.983 125.366H120.943L123.577 230.917Z" fill="#EFEFF0"/>
<path d="M219.938 124.522V230.002H223.026V125.366L219.938 124.522Z" fill="#EFEFF0"/>
<path d="M126.145 144.312V148.09H219.939V145.344L126.145 144.312Z" fill="#EFEFF0"/>
<path d="M132.502 117.43H251.41L268.69 123.149V126.466L120.371 125.324V121.948L132.502 117.43Z" fill="#536DFE"/>
<path d="M120.371 121.948L268.69 123.149V126.466L120.371 125.324V121.948Z" fill="#BCBEC9"/>
<path d="M133.806 161.287L133.118 161.184C133.118 161.153 133.118 161.125 133.118 161.097C133.097 160.936 133.073 160.777 133.049 160.616C133.331 160.839 133.6 161.063 133.847 161.287H133.806Z" fill="url(#paint0_linear)"/>
<path d="M118.847 214.421C119.294 214.317 119.749 214.231 120.203 214.17C123.324 213.725 126.506 214.194 129.366 215.518C129.077 217.645 128.792 219.844 129.404 221.898C129.831 223.343 130.688 224.651 130.871 226.158C131.33 226.237 131.759 226.443 132.109 226.751C132.458 227.06 132.715 227.46 132.85 227.906C132.982 228.301 133.048 228.715 133.046 229.131C133.042 229.646 132.978 230.159 132.853 230.659C132.812 231.059 132.615 231.426 132.307 231.683C131.998 231.94 131.602 232.067 131.201 232.036C128.537 232.338 125.924 231.289 123.446 230.26L118.627 228.257C118.062 228.023 117.494 227.786 116.954 227.497C115.929 226.943 115.019 226.199 114.272 225.305C114.114 225.145 114.004 224.945 113.952 224.727C113.863 224.121 114.572 223.76 115.023 223.35C115.155 223.226 115.27 223.084 115.367 222.931C115.9 222.125 115.952 221.014 116.272 220.064C117.029 217.81 119.37 216.358 120.196 214.159C120.241 214.039 120.282 213.918 120.317 213.794" fill="#A26565"/>
<path opacity="0.1" d="M133.046 229.131C133.042 229.647 132.978 230.159 132.853 230.659C132.812 231.059 132.615 231.426 132.307 231.683C131.998 231.94 131.602 232.067 131.201 232.036C128.537 232.339 125.924 231.289 123.446 230.26L118.627 228.257C118.062 228.023 117.494 227.786 116.954 227.497C115.929 226.943 115.019 226.199 114.272 225.305C114.114 225.145 114.004 224.945 113.952 224.727C113.863 224.121 114.572 223.76 115.023 223.35C115.155 223.226 115.27 223.085 115.367 222.931C116.696 223.216 118.344 224.052 119.36 224.376C120.377 224.653 121.354 225.061 122.265 225.591C123.532 226.403 124.444 227.655 125.518 228.688C126.592 229.72 127.979 230.659 129.477 230.532C130.268 230.413 131.031 230.149 131.728 229.754L133.046 229.131Z" fill="black"/>
<path d="M127.404 180.23C127.493 180.542 127.485 180.874 127.38 181.182C127.276 181.489 127.08 181.758 126.818 181.951C126.368 182.229 125.786 182.191 125.338 182.494C124.784 182.883 124.705 183.654 124.609 184.321C124.264 186.617 123.125 188.699 122.151 190.808C121.177 192.917 120.354 195.219 120.712 197.511C120.956 199.066 121.721 200.725 121.005 202.126C120.829 202.47 120.567 202.776 120.368 203.11C119.387 204.748 119.944 206.823 119.906 208.729C119.921 208.941 119.874 209.152 119.772 209.338C119.622 209.514 119.437 209.657 119.228 209.758C118.879 210.015 118.592 210.347 118.389 210.73C118.185 211.113 118.071 211.537 118.055 211.971C118.026 212.837 118.13 213.703 118.364 214.538C118.402 214.875 118.551 215.189 118.788 215.432C119.062 215.613 119.385 215.705 119.714 215.694C121.876 215.869 123.998 216.385 125.999 217.222C127.304 217.765 128.571 218.447 129.958 218.708C130.092 218.75 130.233 218.764 130.373 218.749C130.513 218.734 130.648 218.691 130.77 218.622C130.945 218.465 131.065 218.257 131.114 218.027C131.648 216.272 132.188 214.462 132.006 212.638C131.927 211.854 131.717 211.086 131.662 210.302C131.421 207.205 133.517 204.411 134.181 201.355C134.481 199.978 134.481 198.554 134.694 197.164C135.273 193.354 137.372 189.937 138.181 186.169C138.294 185.467 138.469 184.776 138.704 184.105C139.307 182.646 140.701 181.462 140.732 179.882C140.751 179.535 140.66 179.19 140.47 178.898C140.146 178.542 139.715 178.301 139.241 178.21C137.371 177.696 135.468 177.312 133.545 177.061C132.663 176.888 131.763 176.825 130.867 176.875C129.702 177.012 128.582 177.407 127.59 178.031C126.261 178.85 127.114 179.046 127.404 180.23Z" fill="#454B69"/>
<path opacity="0.05" d="M127.404 180.23C127.493 180.542 127.485 180.874 127.38 181.182C127.276 181.489 127.08 181.758 126.818 181.951C126.368 182.229 125.786 182.191 125.338 182.494C124.784 182.883 124.705 183.654 124.609 184.321C124.264 186.617 123.125 188.699 122.151 190.808C121.177 192.917 120.354 195.219 120.712 197.511C120.956 199.066 121.721 200.725 121.005 202.126C120.829 202.47 120.567 202.776 120.368 203.11C119.387 204.748 119.944 206.823 119.906 208.729C119.921 208.941 119.874 209.152 119.772 209.338C119.622 209.514 119.437 209.657 119.228 209.758C118.879 210.015 118.592 210.347 118.389 210.73C118.185 211.113 118.071 211.537 118.055 211.971C118.026 212.837 118.13 213.703 118.364 214.538C118.402 214.875 118.551 215.189 118.788 215.432C119.062 215.613 119.385 215.705 119.714 215.694C121.876 215.869 123.998 216.385 125.999 217.222C127.304 217.765 128.571 218.447 129.958 218.708C130.092 218.75 130.233 218.764 130.373 218.749C130.513 218.734 130.648 218.691 130.77 218.622C130.945 218.465 131.065 218.257 131.114 218.027C131.648 216.272 132.188 214.462 132.006 212.638C131.927 211.854 131.717 211.086 131.662 210.302C131.421 207.205 133.517 204.411 134.181 201.355C134.481 199.978 134.481 198.554 134.694 197.164C135.273 193.354 137.372 189.937 138.181 186.169C138.294 185.467 138.469 184.776 138.704 184.105C139.307 182.646 140.701 181.462 140.732 179.882C140.751 179.535 140.66 179.19 140.47 178.898C140.146 178.542 139.715 178.301 139.241 178.21C137.371 177.696 135.468 177.312 133.545 177.061C132.663 176.888 131.763 176.825 130.867 176.875C129.702 177.012 128.582 177.407 127.59 178.031C126.261 178.85 127.114 179.046 127.404 180.23Z" fill="black"/>
<path d="M120.667 232.091H117.731L115.81 192.642L115.676 190.398L118.171 189.521L118.34 191.906L120.667 232.091Z" fill="#565661"/>
<path opacity="0.1" d="M118.34 191.906L115.81 192.642L115.676 190.398L118.171 189.521L118.34 191.906Z" fill="black"/>
<path d="M157.51 240.435L152.667 241.02L130.354 190.399L124.337 189.958L113.769 193.041L111.714 253.312H106.871L108.778 190.839L97.1813 191.135L76.4866 242.634H72.084L93.8492 182.446L94.6891 180.127L127.125 179.016L135.211 183.548L135.314 183.809L157.51 240.435Z" fill="#565661"/>
<path opacity="0.1" d="M135.314 183.809C128.343 185.908 121.108 188.2 121.108 188.2C121.108 188.2 114.509 190.502 111.714 188.2C111.361 187.925 110.967 187.708 110.547 187.556C110.91 187.815 111.301 188.031 111.714 188.2L93.8486 182.443L94.6851 180.127L127.125 179.016L135.211 183.548L135.314 183.809Z" fill="black"/>
<path d="M102.32 173.82L115.528 170.884C115.528 170.884 147.087 176.755 149.434 179.102C149.434 179.102 124.189 184.236 121.401 185.984C118.612 187.732 102.024 189.666 102.32 173.82Z" fill="#536DFE"/>
<path d="M96.6402 140.823C95.6076 144.095 92.7884 147.044 89.3565 147.185C89.1068 147.214 88.854 147.169 88.6302 147.054C88.1999 146.786 88.1896 146.156 88.3651 145.678C88.5407 145.2 88.847 144.769 88.8952 144.267C88.9055 144.165 88.8985 144.061 88.8746 143.961C88.7851 143.551 88.4512 143.187 88.0587 143.273C88.3259 143.059 88.5039 142.753 88.558 142.415C88.6121 142.078 88.5384 141.732 88.3513 141.445C88.1956 141.27 88.0551 141.081 87.9314 140.881C87.6457 140.296 88.0897 139.639 88.2756 139.013C88.6577 137.636 87.687 136.26 87.6078 134.825C87.539 133.541 88.1896 132.333 88.3513 131.06C88.6095 128.996 87.5837 127.017 87.4632 124.956C87.3806 123.517 87.7352 122.093 88.131 120.706C88.4753 119.467 88.8642 118.215 88.8883 116.921C88.8883 115.981 88.7265 115.052 88.6818 114.116C88.6104 113.261 88.7659 112.401 89.1327 111.625C89.371 111.168 89.7769 110.822 90.2652 110.658C91.3943 110.28 92.1344 110.868 92.2996 111.938C92.575 113.758 92.4166 115.617 92.778 117.444C93.1122 119.153 93.6185 120.823 94.2892 122.43C94.8985 123.882 95.6385 125.286 96.1067 126.79C96.4591 128.029 96.7112 129.295 96.8605 130.575C97.3218 134.013 97.6832 137.55 96.6402 140.823Z" fill="#536DFE"/>
<path d="M175.041 224.111C174.605 224.724 174.045 225.239 173.397 225.621C172.748 226.003 172.026 226.243 171.278 226.327C169.784 226.513 168.232 226.137 166.783 226.547C166.558 226.584 166.347 226.676 166.166 226.815C165.986 226.953 165.843 227.134 165.75 227.342C165.714 227.622 165.692 227.903 165.685 228.185C165.516 229.104 164.308 229.31 163.368 229.303L159.492 229.279C158.687 229.279 157.795 229.234 157.217 228.677C156.942 228.373 156.787 227.979 156.78 227.569C156.774 227.158 156.917 226.76 157.182 226.447C157.303 226.305 157.45 226.188 157.616 226.103C157.374 226.023 157.159 225.877 156.995 225.682C156.831 225.487 156.724 225.251 156.687 224.998C156.616 224.493 156.641 223.978 156.759 223.481C156.759 222.043 157.103 219.634 158.115 218.509C159.358 217.108 161.513 215.298 163.389 214.923C164.022 214.802 164.675 214.83 165.296 215.006C165.916 215.183 166.487 215.502 166.962 215.938C167.85 216.764 168.497 218.058 169.716 218.202C170.38 218.285 171.02 217.972 171.678 217.858C172.425 217.762 173.184 217.899 173.85 218.251C174.516 218.603 175.057 219.152 175.399 219.823C175.566 220.163 175.682 220.526 175.743 220.9C175.925 222.021 175.674 223.168 175.041 224.111Z" fill="#A26565"/>
<path opacity="0.1" d="M175.041 224.111C174.605 224.725 174.045 225.239 173.397 225.621C172.748 226.003 172.026 226.244 171.278 226.327C169.784 226.513 168.232 226.138 166.783 226.547C166.558 226.584 166.347 226.676 166.166 226.815C165.986 226.953 165.843 227.135 165.75 227.342C165.714 227.622 165.692 227.903 165.685 228.185C165.516 229.104 164.308 229.31 163.368 229.303L159.492 229.279C158.687 229.279 157.795 229.235 157.217 228.677C156.942 228.373 156.787 227.979 156.78 227.569C156.774 227.159 156.917 226.76 157.182 226.447C159.42 226.354 161.619 226.447 163.85 225.986C164.755 225.804 165.647 225.563 166.563 225.436C168.545 225.154 170.655 225.394 172.476 224.555C173.994 223.867 175.082 222.466 175.726 220.904C175.912 222.021 175.667 223.167 175.041 224.111Z" fill="black"/>
<path d="M164.815 218.67C163.438 219.737 161.823 220.57 160.088 220.659C158.354 220.749 156.512 219.971 155.662 218.464C154.419 216.251 155.521 213.175 153.999 211.145C153.524 210.508 152.839 210.057 152.337 209.441C151.834 208.826 151.545 207.9 151.992 207.246C151.452 207.453 150.88 206.929 150.722 206.372C150.564 205.815 150.664 205.216 150.567 204.651C150.316 203.155 148.846 202.195 148.14 200.866C147.435 199.538 147.531 197.814 147.452 196.241C147.276 192.41 145.849 188.742 143.39 185.798C142.922 185.24 142.323 184.673 141.593 184.7C141.721 183.441 140.881 182.236 139.793 181.603C138.705 180.97 137.411 180.757 136.151 180.633C123.439 179.38 110.193 184.105 98.0559 180.13C94.6791 179.026 91.4227 177.178 89.3574 174.28C88.5529 173.178 87.9773 171.925 87.6646 170.597C87.3519 169.268 87.3083 167.891 87.5365 166.545V166.497C88.0149 164.054 89.3058 163.451 91.4434 162.336C93.9111 161.032 96.4904 159.951 99.1506 159.105C104.314 157.491 109.873 156.91 115.202 158.094C117.69 158.651 120.09 159.573 122.582 160.114C123.563 160.327 124.551 160.478 125.546 160.606C127.091 160.798 128.644 160.926 130.2 161.105C135.174 161.677 140.074 162.779 144.815 164.391C146.581 164.99 148.347 165.674 149.865 166.758C151.066 167.63 152.081 168.732 152.852 170C153.622 171.267 154.133 172.676 154.354 174.143C154.498 175.154 154.502 176.207 154.722 177.188C154.931 178.012 155.207 178.818 155.548 179.597C158.489 186.867 160.893 194.342 162.739 201.964C162.844 202.53 163.038 203.076 163.314 203.581C163.754 204.294 164.512 204.772 164.956 205.484C165.988 207.163 164.994 209.507 165.909 211.255C166.226 211.861 166.753 212.339 167.069 212.944C168.102 214.93 166.577 217.304 164.815 218.67Z" fill="#454B69"/>
<path opacity="0.1" d="M147.224 179.133C147.713 178.745 148.136 178.28 148.474 177.756C148.813 177.229 148.948 176.596 148.852 175.977C148.987 176.76 148.935 177.564 148.703 178.325C148.47 179.085 148.063 179.78 147.513 180.354C146.649 181.238 145.028 182.106 143.765 181.803C143.944 180.791 146.422 179.814 147.224 179.133Z" fill="black"/>
<path opacity="0.1" d="M125.717 161.982C125.613 162.351 125.419 162.688 125.152 162.963C124.885 163.238 124.554 163.443 124.188 163.558C123.454 163.782 122.686 163.872 121.92 163.823H121.232C112.199 163.623 103.07 161.621 94.2479 163.531C93.1846 163.75 92.1415 164.057 91.1293 164.449C89.8396 164.957 88.6322 165.653 87.5459 166.514V166.466C88.0244 164.023 89.3152 163.42 91.4528 162.305C93.9183 161.012 96.4941 159.942 99.1497 159.105C104.313 157.491 109.872 156.91 115.201 158.094C117.69 158.651 120.089 159.573 122.581 160.114C123.562 160.327 124.55 160.478 125.545 160.606C125.738 161.037 125.798 161.516 125.717 161.982Z" fill="black"/>
<path d="M125.717 161.49C125.614 161.859 125.42 162.197 125.153 162.473C124.886 162.749 124.555 162.954 124.188 163.069C123.455 163.294 122.686 163.383 121.92 163.331H121.232C112.199 163.131 103.07 161.128 94.2479 163.038C93.1851 163.258 92.1421 163.564 91.1293 163.953C89.7788 164.492 88.5191 165.235 87.3944 166.156C87.1305 165.431 86.8678 164.705 86.6062 163.978C86.2895 163.11 87.2946 162.918 87.4874 162.14C87.6147 161.614 87.3979 161.015 87.2877 160.454C87.2595 160.317 87.2411 160.177 87.2327 160.038C87.1707 158.795 87.6147 158.08 88.6336 157.409C91.6559 155.413 95.3426 154.043 98.7917 153.014C100.625 152.435 102.519 152.068 104.437 151.92C107.149 151.762 109.858 152.264 112.499 152.901C115.745 153.703 118.956 154.762 121.834 156.459C123.245 157.281 124.622 158.314 125.383 159.779C125.687 160.295 125.804 160.898 125.717 161.49Z" fill="#A26565"/>
<path opacity="0.1" d="M96.6407 140.823C95.608 144.095 92.7888 147.044 89.3569 147.185C89.1072 147.215 88.8544 147.169 88.6306 147.055C88.2003 146.786 88.19 146.157 88.3656 145.678C88.5411 145.2 88.8475 144.77 88.8957 144.267C88.9059 144.165 88.8989 144.061 88.875 143.961C90.6959 141.394 92.4618 138.8 93.1606 135.761C93.302 135.238 93.3452 134.693 93.2879 134.154C93.195 133.535 92.8818 132.974 92.7097 132.375C92.4067 131.315 92.5479 130.193 92.6339 129.096C92.9924 124.262 92.1849 119.413 90.2794 114.956C89.8147 113.883 89.2846 112.795 89.1228 111.649C89.3612 111.193 89.767 110.846 90.2553 110.682C91.3844 110.304 92.1245 110.892 92.2897 111.963C92.5651 113.783 92.4067 115.641 92.7682 117.468C93.1023 119.177 93.6086 120.848 94.2793 122.454C94.8886 123.907 95.6287 125.31 96.0968 126.814C96.4493 128.054 96.7013 129.32 96.8507 130.599C97.3222 134.013 97.6837 137.55 96.6407 140.823Z" fill="black"/>
<path opacity="0.1" d="M125.717 161.49C125.614 161.859 125.42 162.197 125.153 162.473C124.886 162.749 124.555 162.954 124.188 163.069C123.455 163.294 122.686 163.383 121.92 163.331H121.232C118.291 161.379 114.756 160.526 111.249 160.922C110.127 161.056 109.005 161.318 107.883 161.214C105.614 161.008 103.776 159.377 101.755 158.334C99.4562 157.199 96.8701 156.777 94.3291 157.122C91.7881 157.466 89.408 158.562 87.4943 160.268L87.2981 160.44C87.2698 160.303 87.2514 160.164 87.243 160.024C87.181 158.782 87.6251 158.066 88.644 157.395C91.6663 155.399 95.3529 154.03 98.802 153.001C100.636 152.421 102.53 152.054 104.447 151.906C107.16 151.748 109.869 152.25 112.509 152.887C115.755 153.689 118.967 154.749 121.844 156.445C123.245 157.281 124.622 158.314 125.383 159.78C125.687 160.295 125.804 160.898 125.717 161.49Z" fill="black"/>
<path d="M133.438 123.796L133.39 123.92C132.619 125.919 131.2 127.609 130.292 129.557C129.145 132.024 128.863 134.79 128.608 137.502C128.388 139.825 128.171 142.161 128.347 144.491C128.787 150.231 131.593 155.674 132.343 161.304C132.528 162.604 132.575 163.92 132.484 165.23C132.422 166.06 132.271 166.951 131.72 167.563C131.169 168.176 130.099 168.417 129.507 167.828C129.772 167.322 130.04 166.82 130.309 166.314C128.736 165.093 126.367 165.97 124.529 165.206C123.72 164.862 123.073 164.243 122.395 163.689C120.847 162.431 119.064 161.495 117.149 160.936C115.234 160.377 113.227 160.206 111.246 160.433C110.124 160.571 109.001 160.833 107.879 160.729C105.611 160.519 103.773 158.892 101.752 157.849C99.4528 156.715 96.8672 156.292 94.3264 156.636C91.7856 156.98 89.4054 158.075 87.4908 159.78C87.0089 160.227 86.3618 160.75 85.7697 160.468C85.5409 160.328 85.356 160.126 85.2362 159.886C82.9815 156.036 84.6407 151.07 87.0502 147.319C89.4598 143.569 92.6507 140.11 93.6421 135.764C93.7852 135.241 93.8284 134.696 93.7695 134.157C93.6765 133.538 93.3633 132.977 93.1912 132.378C92.8883 131.318 93.0294 130.197 93.1154 129.099C93.4766 124.265 92.6715 119.415 90.7678 114.956C90.2171 113.673 89.5631 112.372 89.5631 110.978C89.5631 108.783 91.1362 106.962 92.4373 105.197C93.9347 103.167 95.1911 100.92 97.0878 99.251C98.8846 97.6646 101.487 96.6943 103.711 97.4995C107.489 96.5825 111.378 96.2037 115.263 96.3742C116.605 96.4362 117.992 96.5773 119.17 97.2276C120.43 97.9158 121.335 99.1409 122.574 99.8738C123.479 100.414 124.522 100.669 125.507 101.047C128.225 102.109 130.469 104.115 131.827 106.697C133.204 109.364 133.548 112.43 133.851 115.417C134.14 118.229 134.415 121.15 133.438 123.796Z" fill="#536DFE"/>
<path opacity="0.1" d="M128.347 144.491C128.788 150.231 131.593 155.674 132.343 161.304C130.843 160.034 128.753 158.758 128.474 157.281C128.164 155.685 127.173 153.593 127.008 151.979C126.843 150.365 127.975 148.393 126.788 147.285C126.209 146.745 127.748 146.896 127.183 146.342C125.913 145.107 125.6 143.204 125.521 141.439C125.387 138.314 125.782 135.155 125.208 132.082C124.863 130.186 124.144 128.38 123.569 126.539C122.901 124.395 122.419 122.2 121.937 120.001C121.463 118.046 121.118 116.062 120.905 114.061C120.757 112.341 120.826 110.517 121.593 108.948C122.361 107.379 123.913 106.106 125.655 106.13C131.479 106.205 130.474 114.099 131.755 117.747C132.268 119.199 132.96 120.603 133.238 122.117C133.34 122.711 133.395 123.311 133.404 123.913C132.633 125.913 131.214 127.602 130.306 129.55C129.159 132.017 128.877 134.784 128.622 137.495C128.388 139.825 128.171 142.161 128.347 144.491Z" fill="black"/>
<path d="M132.134 117.658C132.646 119.11 133.338 120.514 133.617 122.028C134.082 124.564 133.362 127.258 134.144 129.715C134.347 130.24 134.517 130.776 134.653 131.322C134.788 132.103 134.633 132.902 134.633 133.696C134.633 134.977 135.035 136.215 135.393 137.444C136.604 141.618 137.405 145.901 137.786 150.231C137.843 151.394 138.026 152.548 138.333 153.672C138.478 154.053 138.602 154.441 138.705 154.835C138.797 155.361 138.819 155.897 138.77 156.428C138.677 158.114 138.488 159.807 138.677 161.487C138.867 163.166 139.479 164.869 140.743 165.994C139.614 166.239 138.419 166.483 137.318 166.122C135.769 165.616 134.839 164.057 134.051 162.639C133.053 160.829 129.259 159.198 128.867 157.165C128.561 155.571 127.569 153.479 127.404 151.862C127.239 150.245 128.368 148.28 127.18 147.172C126.605 146.632 128.144 146.779 127.576 146.229C126.309 144.994 125.996 143.091 125.917 141.322C125.783 138.201 126.175 135.042 125.604 131.969C125.259 130.073 124.54 128.266 123.965 126.422C123.297 124.282 122.815 122.086 122.334 119.884C121.858 117.929 121.513 115.945 121.301 113.945C121.153 112.224 121.218 110.397 121.989 108.828C122.76 107.259 124.313 105.989 126.051 106.01C131.851 106.113 130.853 114.01 132.134 117.658Z" fill="#536DFE"/>
<path opacity="0.1" d="M115.535 119.003C116.079 119.64 116.778 120.338 117.6 120.214C117.538 120.313 117.439 120.384 117.325 120.411C117.211 120.438 117.091 120.419 116.991 120.359C116.793 120.228 116.635 120.046 116.533 119.832L115.356 117.847C115.201 117.589 114.134 116.085 113.872 116.952C113.769 117.32 115.27 118.693 115.535 119.003Z" fill="black"/>
<path opacity="0.1" d="M114.902 123.955C114.868 123.306 114.594 122.693 114.134 122.234C113.72 121.859 113.237 121.568 112.712 121.378C111.422 120.848 109.893 120.421 108.492 120.49C109.002 121.233 110.637 121.677 111.456 122.097C112.617 122.695 113.766 123.315 114.902 123.955Z" fill="black"/>
<path opacity="0.1" d="M118.567 138.049C118.33 139.811 116.888 141.146 115.428 142.179C113.969 143.211 112.33 144.099 111.377 145.592C110.716 146.625 110.42 147.822 109.859 148.899C109.239 150.086 108.313 151.084 107.573 152.199C106.833 153.314 106.254 154.646 106.482 155.967C106.485 156.028 106.501 156.087 106.528 156.142C106.555 156.196 106.593 156.245 106.64 156.284C106.711 156.314 106.788 156.325 106.865 156.316C106.941 156.308 107.014 156.28 107.077 156.236C108.578 155.451 109.17 153.658 109.8 152.106C110.461 150.54 111.206 149.01 112.031 147.523C112.402 146.835 112.812 146.084 113.504 145.702C113.978 145.505 114.463 145.336 114.956 145.197C115.657 144.875 116.271 144.393 116.75 143.789C118.629 141.548 119.61 138.69 119.504 135.768C119.483 135.152 119.449 132.186 118.523 133.101C117.597 134.016 118.726 136.852 118.567 138.049Z" fill="black"/>
<path d="M120.836 70.4768C123.796 71.7672 126.344 74.6061 126.251 77.8235C126.171 81.2027 123.342 84.3857 124.316 87.6237C124.881 89.5026 126.581 90.762 127.927 92.1901C133.053 97.6132 133.042 107.08 127.899 112.492C125.931 114.557 123.4 116.026 121.318 117.998C113.976 124.915 113.662 136.879 117.593 146.167C114.581 146.818 111.512 147.164 108.43 147.199C106.988 147.199 105.222 146.955 104.699 145.609C104.217 144.367 105.043 142.688 104.093 141.769C103.645 141.339 102.974 141.281 102.372 141.181C98.4959 140.554 95.3153 137.461 93.8627 133.817C92.41 130.173 92.4858 126.071 93.3188 122.238C93.9109 119.468 94.8368 116.419 93.4634 113.941C91.7423 110.824 86.7923 109.509 86.868 105.944C86.93 103.023 90.3757 101.601 92.3309 99.4301C95.9383 95.4316 94.2207 89.2273 94.2138 83.8385C94.2138 79.0967 95.8729 74.2035 99.4047 71.0446C104.658 66.3062 114.774 67.8444 120.836 70.4768Z" fill="#A26565"/>
<g opacity="0.1">
<path opacity="0.1" d="M94.0278 110.407C92.5167 107.682 88.5478 106.333 87.6252 103.652C87.1637 104.278 86.9043 105.029 86.8817 105.806C86.806 109.371 91.749 110.686 93.477 113.807C94.0445 114.912 94.2834 116.156 94.1655 117.393C94.7094 114.998 95.1878 112.499 94.0278 110.407Z" fill="black"/>
<path opacity="0.1" d="M124.712 83.2125C125.331 81.4059 126.23 79.5821 126.275 77.7067C126.281 77.5035 126.275 77.3002 126.257 77.0977C125.565 79.1692 124.505 81.1788 124.712 83.2125Z" fill="black"/>
<path opacity="0.1" d="M94.6195 92.837C95.8036 89.0965 94.7813 84.4579 94.7778 80.308C94.7778 79.8056 94.7985 79.2998 94.8364 78.7974C94.4285 80.4011 94.2227 82.0496 94.2236 83.7043C94.2305 86.6671 94.7503 89.8811 94.6195 92.837Z" fill="black"/>
<path opacity="0.1" d="M128.474 108.972C126.505 111.037 123.975 112.506 121.893 114.478C118.175 117.978 116.265 122.771 115.786 127.854C116.674 124.068 118.468 120.583 121.342 117.874C123.407 115.913 125.954 114.451 127.923 112.369C130.266 109.817 131.626 106.517 131.762 103.057C131.167 105.268 130.038 107.3 128.474 108.972Z" fill="black"/>
<path opacity="0.1" d="M109.005 143.669C107.563 143.669 105.797 143.421 105.274 142.075C104.792 140.837 105.618 139.157 104.668 138.235C104.22 137.805 103.546 137.747 102.947 137.647C99.0743 137.024 95.8936 133.927 94.441 130.286C93.3705 127.595 93.1398 124.66 93.4083 121.763C93.3808 121.876 93.3567 121.99 93.3326 122.107C92.5134 125.94 92.4273 130.045 93.8765 133.689C95.3257 137.334 98.5097 140.427 102.382 141.05C102.995 141.15 103.67 141.212 104.103 141.638C105.064 142.561 104.227 144.24 104.709 145.479C105.232 146.824 106.998 147.089 108.441 147.072C111.522 147.036 114.592 146.691 117.604 146.04C117.179 145.036 116.808 144.01 116.492 142.967C114.02 143.406 111.516 143.641 109.005 143.669Z" fill="black"/>
</g>
<path opacity="0.1" d="M120.278 128.662C121.128 129.302 122.051 126.862 121.524 126.253C121.383 126.412 120.147 128.573 120.278 128.662Z" fill="black"/>
<path opacity="0.1" d="M123.903 172.825C124.905 172.481 125.969 172.137 126.623 171.311C127.163 170.647 127.607 168.011 126.464 169.274C125.494 170.358 125.036 171.786 123.903 172.825Z" fill="black"/>
<path opacity="0.1" d="M134.103 170.062C133.982 170.874 133.759 171.717 133.184 172.302C133.077 172.412 132.84 172.481 132.809 172.333C133.451 171.991 134.047 171.57 134.585 171.08C135.748 169.927 135.907 167.089 134.134 166.335C134.117 167.581 134.292 168.795 134.103 170.062Z" fill="black"/>
<path d="M146.347 164.945C146.347 164.945 136.578 161.108 133.046 161.504C129.514 161.899 137.046 167.464 137.046 167.464L141.548 170.499C141.548 170.499 144.302 169.466 144.485 169.387C144.667 169.308 146.347 164.945 146.347 164.945Z" fill="#454B69"/>
<path d="M79.1299 123.782C79.1299 123.782 86.4687 119.529 96.1552 124.815C105.842 130.1 107.456 161.204 107.456 161.204C107.456 161.204 103.494 192.893 118.771 185.842C118.771 185.842 146.653 177.188 149.444 179.094C149.444 179.094 152.088 179.094 146.804 180.268C141.52 181.441 121.108 187.907 121.108 187.907C121.108 187.907 114.509 190.213 111.714 187.907C108.919 185.601 100.998 188.203 99.9692 172.353C99.288 162.365 98.0631 152.422 96.2998 142.567L93.5769 134.498L79.1299 123.782Z" fill="#565661"/>
<path d="M78.249 172.79C78.249 172.79 81.4778 140.657 76.1837 129.064C71.578 118.961 89.3881 123.686 94.0351 125.062C94.7543 125.277 95.3815 125.725 95.8182 126.336C98.572 130.207 108.451 145.723 105.539 166.483C105.539 166.483 104.365 184.972 111.704 187.903L89.0921 180.622C87.2573 180.03 85.3951 179.538 83.5156 179.111C81.1198 178.568 77.2163 177.023 78.249 172.79Z" fill="#536DFE"/>
<path d="M239.073 232.779H242.009L243.934 193.331L244.064 191.087L241.569 190.209L241.404 192.594L239.073 232.779Z" fill="#565661"/>
<path opacity="0.1" d="M241.404 192.594L243.934 193.331L244.065 191.087L241.57 190.209L241.404 192.594Z" fill="black"/>
<path d="M214.557 217.545C214.485 218.085 214.347 218.615 214.144 219.121C213.936 219.782 213.488 220.342 212.888 220.69C212.485 220.857 212.054 220.942 211.618 220.941C209.997 221.038 208.282 221.014 206.888 220.188C206.294 219.805 205.75 219.351 205.267 218.835C202.134 215.724 199.286 212.338 196.758 208.719C196.334 208.11 195.897 207.39 196.086 206.654C199.362 205.746 202.472 204.323 205.301 202.439C205.692 202.139 206.129 201.907 206.596 201.751C207.394 201.58 208.217 201.55 209.026 201.661C209.807 201.788 209.842 201.812 210.141 202.693C210.637 204.183 210.554 205.79 211.112 207.28C211.466 208.104 211.897 208.892 212.399 209.634C213.838 212.039 214.943 214.878 214.557 217.545Z" fill="#A26565"/>
<path opacity="0.1" d="M214.557 217.545C214.485 218.085 214.346 218.615 214.144 219.121C213.936 219.782 213.488 220.342 212.888 220.69C212.485 220.857 212.054 220.942 211.618 220.941C209.996 221.038 208.282 221.014 206.888 220.188C206.294 219.805 205.75 219.351 205.267 218.835C202.134 215.724 199.286 212.338 196.758 208.719C196.334 208.11 195.897 207.39 196.086 206.654C197.155 206.358 198.207 206.007 199.24 205.601L199.291 205.639C200.348 206.393 201.116 207.473 201.863 208.533L204.272 211.922C204.702 212.588 205.209 213.2 205.783 213.746C206.495 214.317 207.282 214.79 208.12 215.15C209.253 215.697 210.385 216.244 211.563 216.685C212.323 216.991 213.611 217.111 214.557 217.545Z" fill="black"/>
<path d="M216.781 180.798C216.544 181.37 216.256 181.919 215.921 182.439C212.721 187.81 210.253 193.583 208.582 199.607C208.107 199.5 207.838 200.147 207.842 200.639C207.845 201.131 207.842 201.751 207.387 201.93C207.253 201.981 207.102 201.981 206.971 202.04C206.682 202.17 206.599 202.539 206.558 202.855L206.152 205.835C206.01 206.867 205.887 207.986 206.393 208.898C206.742 209.44 207.194 209.907 207.725 210.274L214.444 215.573C214.719 215.79 215.06 216.021 215.391 215.9C216.144 215.625 215.477 214.276 216.079 213.729C216.478 213.354 217.112 213.636 217.666 213.591C218.389 213.536 218.936 212.872 219.118 212.174C219.247 211.462 219.259 210.735 219.156 210.02C219.111 209.693 219.149 209.36 219.266 209.053C219.472 208.726 219.754 208.456 220.089 208.265C221.255 207.413 222.194 206.29 222.825 204.991C223.456 203.693 223.759 202.26 223.707 200.818C223.652 200.379 223.669 199.934 223.755 199.5C223.895 199.103 224.106 198.734 224.378 198.413C226.819 195.113 228.853 191.531 230.874 187.955C232.037 185.891 233.221 183.795 233.627 181.469C233.663 181.382 233.677 181.289 233.67 181.196C233.663 181.102 233.634 181.012 233.586 180.932C233.538 180.852 233.472 180.784 233.393 180.734C233.314 180.684 233.225 180.653 233.132 180.643C232.124 180.328 231.096 180.082 230.054 179.907C226.891 179.267 223.838 178.279 220.76 177.329C217.683 176.379 217.707 178.313 216.781 180.798Z" fill="#454B69"/>
<path d="M202.231 241.123L207.078 241.708L229.387 191.087L235.404 190.646L245.975 193.729L248.027 254H252.87L250.963 191.527L262.56 191.823L283.255 243.322H287.657L265.892 183.134L265.056 180.815L232.616 179.704L224.53 184.236L224.427 184.497L202.231 241.123Z" fill="#565661"/>
<path opacity="0.1" d="M224.427 184.497C231.397 186.596 238.633 188.888 238.633 188.888C238.633 188.888 245.232 191.19 248.027 188.888C248.379 188.613 248.773 188.396 249.194 188.244C248.831 188.503 248.439 188.719 248.027 188.888L265.892 183.131L265.066 180.815L232.626 179.704L224.54 184.236L224.427 184.497Z" fill="black"/>
<path d="M257.42 174.508L244.213 171.572C244.213 171.572 212.654 177.443 210.307 179.79C210.307 179.79 235.552 184.924 238.34 186.672C241.128 188.42 257.716 190.354 257.42 174.508Z" fill="#536DFE"/>
<path d="M208.41 221.678C207.615 223.192 205.656 223.619 203.935 223.643C201.545 223.672 199.172 223.249 196.94 222.394C195.667 221.905 194.445 221.275 193.13 220.918C191.171 220.381 188.999 220.425 187.278 219.348C186.365 218.74 185.611 217.922 185.078 216.964C184.979 216.795 184.882 216.62 184.793 216.441C183.97 214.841 183.588 212.979 184.046 211.252C184.504 209.524 186.166 207.621 188.094 207.649C190.383 207.683 193.113 208.767 195.323 209.328C198.076 210.016 200.83 210.811 203.264 212.267C205.302 213.492 207.102 215.25 208.062 217.397C208.247 217.812 208.399 218.239 208.517 218.677C208.816 219.668 208.885 220.773 208.41 221.678Z" fill="#A26565"/>
<path opacity="0.1" d="M208.41 221.678C207.615 223.192 205.656 223.619 203.935 223.643C201.546 223.672 199.172 223.248 196.941 222.394C195.667 221.905 194.445 221.275 193.13 220.917C191.171 220.38 188.999 220.425 187.278 219.348C186.365 218.74 185.611 217.922 185.079 216.963C184.979 216.795 184.882 216.619 184.793 216.44C185.137 216.468 185.454 216.502 185.626 216.52C187.74 216.723 189.757 217.493 191.774 218.075C194.574 218.884 197.466 219.335 200.379 219.417C202.445 219.475 204.6 219.324 206.403 218.316C206.942 217.976 207.501 217.669 208.076 217.397C208.261 217.811 208.413 218.239 208.531 218.677C208.816 219.668 208.885 220.773 208.41 221.678Z" fill="black"/>
<path d="M223.202 156.249C218.727 155.516 214.169 155.337 209.633 155.158L204.084 154.938C203.689 154.892 203.289 154.941 202.917 155.079C202.596 155.285 202.291 155.515 202.005 155.767C201.447 156.146 200.734 156.187 200.063 156.225C195.301 156.487 190.566 157.102 185.895 158.063C183.485 158.555 180.983 159.198 179.172 160.86C177.258 162.619 176.418 165.299 176.353 167.894C176.288 170.488 176.969 173.038 177.689 175.53C178.604 178.529 179.11 181.638 179.193 184.772C179.16 185.642 179.194 186.513 179.293 187.377C179.453 188.203 179.696 189.01 180.019 189.786L182.552 196.548C182.776 197.14 182.996 197.728 183.241 198.306C183.485 198.884 183.719 199.338 183.929 199.882C184.239 200.625 184.484 201.396 184.728 202.164L186.415 207.459L186.635 208.148C187.244 210.054 187.867 211.995 189.017 213.633C190.167 215.271 191.946 216.592 193.946 216.692C194.592 216.668 195.238 216.685 195.881 216.743C196.429 216.877 196.961 217.07 197.468 217.318C198.969 217.942 200.581 218.257 202.208 218.244C203.705 218.244 205.368 217.827 206.18 216.568C206.627 215.88 206.744 215.033 206.868 214.221C207.085 212.59 207.295 210.887 206.741 209.338C206.397 208.413 205.818 207.618 205.419 206.706C204.862 205.464 204.679 204.091 204.318 202.779C203.535 199.958 201.944 197.426 199.74 195.498C198.957 192.399 198.382 189.252 198.018 186.076C197.968 185.373 197.828 184.68 197.602 184.012C197.199 182.979 196.383 182.143 196.043 181.09C195.722 180.113 195.819 178.984 195.237 178.141C200.08 179.473 204.875 179.174 209.904 179.095C211.515 179.1 213.124 179.008 214.724 178.819C215.469 178.683 216.224 178.602 216.982 178.578C218.538 178.578 219.997 179.267 221.426 179.872C225.463 181.593 229.718 182.945 234.103 183.131C238.63 183.32 243.105 182.257 247.528 181.204C249.473 180.739 251.493 180.237 253.036 178.96C254.578 177.684 255.445 175.382 254.495 173.63C253.772 172.312 252.275 171.665 250.877 171.115C247.008 169.587 243.119 168.097 239.391 166.249C233.697 163.475 229.439 157.281 223.202 156.249Z" fill="#454B69"/>
<path d="M215.222 140.682C214.682 141.852 213.773 142.808 213.102 143.909C211.979 145.722 211.608 147.901 212.069 149.983C212.311 151.012 212.786 151.972 213.458 152.788C214.129 153.605 214.979 154.257 215.942 154.694C216.801 155.036 217.705 155.254 218.627 155.341C219.838 155.489 221.129 155.52 222.2 154.935C223.001 154.454 223.658 153.767 224.103 152.946C225.029 151.397 225.556 149.652 226.038 147.915C226.929 144.708 227.69 141.418 227.58 138.09C227.542 136.945 227.315 135.654 226.365 134.993C225.874 134.71 225.331 134.532 224.768 134.47L220.227 133.658C219.35 133.5 217.818 132.857 217.057 133.49C216.296 134.123 216.238 135.995 216.107 136.872C215.9 138.17 215.773 139.488 215.222 140.682Z" fill="#A1616A"/>
<path d="M270.412 127.371L269.224 137.323C268.978 139.098 268.837 140.886 268.801 142.677C268.801 143.675 268.832 144.783 268.171 145.53C267.848 145.87 267.438 146.116 266.987 146.242C265.544 146.69 263.971 146.291 262.594 145.675C261.789 145.33 260.966 144.832 260.601 144.03C260.389 143.474 260.301 142.879 260.343 142.285C260.343 136.349 260.904 130.159 264.006 125.1C264.27 124.604 264.643 124.174 265.097 123.841C265.957 123.29 267.083 123.445 268.057 123.745C268.656 123.927 270.274 124.13 270.656 124.663C271.038 125.197 270.494 126.687 270.412 127.371Z" fill="#A1616A"/>
<path d="M238.905 91.3847C245.749 91.3847 251.297 85.8384 251.297 78.9968C251.297 72.1551 245.749 66.6089 238.905 66.6089C232.061 66.6089 226.513 72.1551 226.513 78.9968C226.513 85.8384 232.061 91.3847 238.905 91.3847Z" fill="#A1616A"/>
<path d="M235.59 97.4582C235.546 98.422 235.283 99.3632 234.823 100.211C241.15 99.2476 247.46 98.174 253.755 96.9903C251.666 95.9171 250.088 94.0615 249.363 91.8286C249.02 90.6313 248.833 89.3951 248.805 88.1501C248.705 86.1759 248.743 84.197 248.919 82.228C246.716 82.4586 244.63 83.2844 242.53 83.9933C240.419 84.7065 238.271 85.3073 236.096 85.793C235.046 86.027 233.99 86.2266 232.93 86.4124C231.69 86.6326 231.095 86.6292 231.955 87.7165C234.265 90.6208 235.914 93.5733 235.59 97.4582Z" fill="#A1616A"/>
<path d="M239.397 95.8031C237.762 96.0474 236.048 96.3227 234.743 97.3344C234.246 97.7607 233.774 98.2145 233.328 98.6936C230.736 101.209 227.077 102.221 223.931 103.996C223.418 104.25 222.963 104.607 222.595 105.046C222.251 105.524 222.076 106.133 221.714 106.608C221.294 107.159 220.63 107.503 220.303 108.112C219.976 108.721 220.048 109.368 220.014 110.015C219.935 111.436 219.398 112.785 218.981 114.144C217.071 120.651 218.117 127.908 215.226 134.054C215.359 134.408 215.562 134.732 215.823 135.005C216.085 135.278 216.399 135.495 216.747 135.644C217.475 135.906 218.234 136.069 219.005 136.129L225.411 136.924C226.327 137.038 227.297 137.144 228.134 136.762C227.369 138.871 226.828 141.054 226.52 143.276C226.364 144.634 226.122 145.981 225.797 147.309C224.915 150.337 222.699 152.86 220.072 154.584C219.741 154.757 219.462 155.014 219.263 155.33C218.919 156.019 219.429 156.789 219.79 157.464C220.84 159.418 220.695 161.765 220.682 163.981C220.668 166.197 220.891 168.63 222.44 170.22C223.356 171.159 224.609 171.669 225.828 172.154L235.848 176.156C237.502 176.86 239.207 177.435 240.949 177.876C243.59 178.478 246.333 178.454 249.042 178.337C250.832 178.262 252.62 178.147 254.405 177.993C255.115 177.991 255.813 177.807 256.433 177.46C256.966 177.039 257.376 176.483 257.62 175.85C259.014 172.818 259.482 169.28 261.644 166.741C263.128 164.996 265.431 163.603 265.599 161.321C265.678 160.186 265.172 159.081 265.165 157.942C265.165 156.542 265.899 155.21 265.854 153.813C265.761 151.538 263.616 149.804 263.276 147.554C262.408 141.848 265.307 136.15 267.086 130.661C267.406 129.681 267.819 128.597 268.763 128.177C269.706 127.757 271.035 127.977 271.372 127.048C272.222 124.715 272.425 121.979 272.315 119.498C272.253 118.063 271.744 116.659 271.802 115.221C271.843 114.209 272.167 113.225 272.253 112.217C272.384 110.693 271.981 109.179 271.565 107.706C271.444 107.18 271.264 106.67 271.028 106.185C270.773 105.745 270.473 105.333 270.133 104.956L268.456 102.964C267.671 102.031 266.842 101.065 265.702 100.593C265.334 99.6812 264.157 99.0515 263.314 98.5491C262.464 98.0669 261.585 97.6359 260.684 97.2587L251.204 93.0743C250.849 92.896 250.47 92.773 250.078 92.7096C249.501 92.6902 248.928 92.8082 248.405 93.0537C245.514 94.1996 242.495 95.342 239.397 95.8031Z" fill="#536DFE"/>
<path d="M229.356 81.1512C228.991 79.8677 228.058 78.7596 227.917 77.4314C227.789 76.2511 228.309 75.1086 228.605 73.9593C228.901 72.81 228.891 71.406 227.979 70.6421C227.827 70.5114 227.634 70.3944 227.579 70.2017C227.469 69.8576 227.817 69.5444 227.924 69.1969C228.12 68.5086 227.27 67.7482 227.579 67.0875C227.755 66.7262 228.196 66.5989 228.581 66.4853C230.054 66.0483 231.548 65.0779 231.868 63.5741C233.022 64.0559 234.25 63.1509 235.135 62.2734C236.02 61.3959 237.108 60.3946 238.326 60.6595L238.054 61.2136C239.933 60.5316 241.988 60.5086 243.882 61.1482H243.304C244.965 61.1763 246.576 61.7212 247.913 62.707C247.765 62.707 247.751 62.9272 247.809 63.0511C248.291 64.1763 249.531 64.7716 250.725 65.0504C251.444 65.2224 252.226 65.3463 252.752 65.8625C253.279 66.3786 253.289 67.4557 252.594 67.7034C254.012 68.2553 255.355 68.9837 256.591 69.8713C256.935 70.1225 257.324 70.4632 257.279 70.9036C257.23 71.1248 257.158 71.3404 257.066 71.5471C256.997 71.9144 257.022 72.2931 257.138 72.6483L257.52 74.2243C257.94 75.9758 258.27 78.0852 256.993 79.3549C257.471 80.2478 257.649 81.271 257.499 82.2726C257.35 83.2743 256.882 84.2011 256.164 84.9157C256.265 85.2232 256.3 85.5486 256.266 85.8705C256.233 86.1924 256.131 86.5036 255.969 86.7835C255.806 87.0634 255.586 87.3057 255.323 87.4944C255.06 87.6832 254.76 87.8141 254.443 87.8785C254.866 88.5392 254.477 89.482 253.809 89.895C253.141 90.3079 252.302 90.3113 251.524 90.2391C250.746 90.1668 249.957 89.9913 249.179 90.1083C248.047 90.2838 246.939 91.0546 245.847 90.7105C245.441 90.5366 245.05 90.3271 244.68 90.0842C243.916 89.6747 243.028 89.5818 242.181 89.396C240.738 89.0859 239.367 88.5018 238.144 87.6755C237.333 87.1881 236.686 86.469 236.288 85.6108C235.531 83.6976 236.805 81.189 235.466 79.6302C234.681 78.7218 233.125 78.708 232.247 79.4857C231.81 79.8745 231.751 80.6935 231.297 80.986C230.663 81.1463 230.007 81.2021 229.356 81.1512Z" fill="#464353"/>
<path opacity="0.1" d="M212.517 179.821C212.027 179.433 211.605 178.968 211.267 178.444C210.928 177.917 210.793 177.284 210.888 176.665C210.754 177.448 210.805 178.252 211.038 179.013C211.271 179.773 211.678 180.468 212.228 181.042C213.092 181.926 214.713 182.794 215.976 182.491C215.797 181.479 213.319 180.502 212.517 179.821Z" fill="black"/>
<path d="M280.611 124.471C280.611 124.471 273.272 120.218 263.585 125.503C253.899 130.789 252.284 161.893 252.284 161.893C252.284 161.893 256.247 193.582 240.97 186.531C240.97 186.531 213.088 177.877 210.296 179.783C210.296 179.783 207.652 179.783 212.936 180.956C218.22 182.13 238.633 188.595 238.633 188.595C238.633 188.595 245.231 190.901 248.026 188.595C250.822 186.29 258.742 188.891 259.771 173.042C260.452 163.054 261.677 153.11 263.441 143.256L266.164 135.186L280.611 124.471Z" fill="#565661"/>
<path d="M281.492 173.479C281.492 173.479 278.263 141.346 283.557 129.753C288.163 119.65 270.353 124.374 265.706 125.751C264.987 125.966 264.36 126.414 263.923 127.024C261.169 130.895 251.29 146.411 254.202 167.171C254.202 167.171 255.376 185.66 248.037 188.592L270.649 181.311C272.484 180.719 274.346 180.227 276.226 179.8C278.621 179.256 282.525 177.711 281.492 173.479Z" fill="#536DFE"/>
<path opacity="0.1" d="M340.771 235.962C359.295 235.962 374.312 233.551 374.312 230.577C374.312 227.602 359.295 225.191 340.771 225.191C322.246 225.191 307.229 227.602 307.229 230.577C307.229 233.551 322.246 235.962 340.771 235.962Z" fill="#536DFE"/>
<path d="M341.849 127.41H339.69V175.987H341.849V127.41Z" fill="#535461"/>
<path d="M355.414 175.84L355.28 178.028L355.087 181.125L355.008 182.412L354.819 185.509L354.736 186.796L354.543 189.893L352.368 225.016C352.268 226.524 351.599 227.937 350.496 228.969C349.392 230.002 347.938 230.577 346.426 230.577H335.112C333.598 230.576 332.141 229.998 331.038 228.961C329.936 227.924 329.27 226.506 329.177 224.995L326.995 189.869L326.806 186.772L326.727 185.485L326.53 182.388L326.451 181.101L326.262 178.004L326.124 175.815C326.1 175.396 326.162 174.976 326.306 174.581C326.449 174.186 326.672 173.825 326.96 173.519C327.248 173.213 327.595 172.968 327.98 172.8C328.366 172.633 328.781 172.545 329.201 172.543H352.34C352.762 172.545 353.18 172.634 353.566 172.803C353.953 172.973 354.301 173.219 354.589 173.528C354.877 173.837 355.098 174.201 355.24 174.599C355.382 174.996 355.441 175.418 355.414 175.84Z" fill="#565661"/>
<path d="M355.28 178.028L355.087 181.115H326.454L326.262 178.028H355.28Z" fill="#9D9CB5"/>
<path d="M355.008 182.405L354.819 185.495H326.727L326.534 182.405H355.008Z" fill="#9D9CB5"/>
<path d="M354.736 186.782L354.543 189.868H326.998L326.806 186.782H354.736Z" fill="#9D9CB5"/>
<path d="M322.964 145.616C335.535 154.708 340.771 168.926 340.771 168.926C340.771 168.926 325.625 168.407 313.05 159.315C300.476 150.224 295.247 136.009 295.247 136.009C295.247 136.009 310.396 136.528 322.964 145.616Z" fill="#536DFE"/>
<path d="M295.247 136.009C295.247 136.009 310.968 144.732 316.014 151.955C321.06 159.178 340.771 168.926 340.771 168.926" stroke="#535461" stroke-width="2" stroke-miterlimit="10"/>
<path d="M331.077 127.303C337.921 132.248 340.771 139.99 340.771 139.99C340.771 139.99 332.509 139.704 325.683 134.76C318.857 129.815 316.011 122.072 316.011 122.072C316.011 122.072 324.238 122.354 331.077 127.303Z" fill="#536DFE"/>
<path d="M316.011 122.072C316.011 122.072 324.568 126.821 327.312 130.751C330.055 134.68 340.788 139.99 340.788 139.99" stroke="#535461" stroke-width="2" stroke-miterlimit="10"/>
<path d="M350.712 139.594C342.853 148.228 341.19 159.511 341.19 159.511C341.19 159.511 352.271 156.793 360.123 148.156C367.975 139.519 369.644 128.239 369.644 128.239C369.644 128.239 358.57 130.961 350.712 139.594Z" fill="#536DFE"/>
<path d="M369.651 128.242C369.651 128.242 359.414 137.093 356.811 143.19C354.209 149.288 341.19 159.511 341.19 159.511" stroke="#535461" stroke-width="2" stroke-miterlimit="10"/>
<path d="M191.725 118.81V119.595H168.452V118.958C169.09 118.719 169.694 118.397 170.249 118.002C171.237 117.294 172.043 116.361 172.598 115.281C173.154 114.2 173.443 113.002 173.443 111.787C173.444 111.152 173.364 110.52 173.206 109.905C172.924 108.798 172.399 107.768 171.667 106.891C170.936 106.014 170.017 105.312 168.979 104.836H191.567C190.528 105.312 189.61 106.014 188.878 106.891C188.147 107.768 187.621 108.798 187.34 109.905C187.183 110.52 187.104 111.152 187.106 111.787C187.105 113.002 187.394 114.199 187.949 115.28C188.504 116.361 189.309 117.294 190.297 118.002C190.743 118.32 191.222 118.591 191.725 118.81Z" fill="#DFE6F5"/>
<path opacity="0.1" d="M191.567 104.836C190.529 105.312 189.61 106.014 188.879 106.891C188.148 107.768 187.622 108.798 187.34 109.905H173.207C172.925 108.798 172.399 107.768 171.668 106.891C170.936 106.014 170.018 105.312 168.979 104.836H191.567Z" fill="black"/>
<path d="M141.807 100.827V105.245C141.807 107.682 143.59 109.66 145.793 109.66H214.262C216.465 109.66 218.252 107.682 218.252 105.245V100.827H141.807Z" fill="#DFE6F5"/>
<path opacity="0.1" d="M191.725 118.81V119.595H168.452V118.958C169.09 118.719 169.694 118.397 170.249 118.001H190.297C190.743 118.32 191.222 118.591 191.725 118.81Z" fill="black"/>
<path d="M198.249 118.246H161.93C161.285 118.246 160.763 118.768 160.763 119.411C160.763 120.054 161.285 120.576 161.93 120.576H198.249C198.893 120.576 199.416 120.054 199.416 119.411C199.416 118.768 198.893 118.246 198.249 118.246Z" fill="#DFE6F5"/>
<path d="M218.252 52.435C218.252 51.9114 218.149 51.393 217.948 50.9093C217.747 50.4256 217.454 49.9862 217.083 49.6161C216.713 49.246 216.273 48.9526 215.789 48.7525C215.305 48.5525 214.786 48.4497 214.262 48.4502H145.793C145.269 48.4497 144.751 48.5525 144.267 48.7526C143.783 48.9527 143.343 49.2462 142.973 49.6163C142.603 49.9864 142.309 50.4259 142.109 50.9095C141.909 51.3932 141.806 51.9116 141.807 52.435V101.687H218.252V52.435Z" fill="#474157"/>
<path d="M216.166 54.2143V96.5396C216.166 96.7975 216.116 97.0529 216.017 97.2913C215.919 97.5297 215.775 97.7463 215.592 97.9288C215.41 98.1113 215.194 98.2561 214.955 98.3549C214.717 98.4536 214.462 98.5045 214.204 98.5045H145.855C145.597 98.5045 145.341 98.4536 145.103 98.3549C144.865 98.2561 144.648 98.1113 144.466 97.9288C144.284 97.7463 144.139 97.5297 144.041 97.2913C143.943 97.0529 143.892 96.7975 143.893 96.5396V54.2143C143.891 53.87 143.981 53.5314 144.154 53.2336C144.327 52.9353 144.574 52.6876 144.873 52.5154C145.171 52.3432 145.51 52.2527 145.855 52.2529H214.204C214.724 52.2529 215.223 52.4596 215.591 52.8274C215.959 53.1953 216.166 53.6941 216.166 54.2143Z" fill="#4C4C78"/>
<path d="M180.028 51.2687C180.536 51.2687 180.948 50.8573 180.948 50.3499C180.948 49.8425 180.536 49.4312 180.028 49.4312C179.521 49.4312 179.109 49.8425 179.109 50.3499C179.109 50.8573 179.521 51.2687 180.028 51.2687Z" fill="#536DFE"/>
<path d="M180.029 107.696C181.282 107.696 182.298 106.68 182.298 105.428C182.298 104.175 181.282 103.16 180.029 103.16C178.776 103.16 177.761 104.175 177.761 105.428C177.761 106.68 178.776 107.696 180.029 107.696Z" fill="#536DFE"/>
<path d="M216.166 54.2143H143.899C143.899 53.6941 144.106 53.1953 144.474 52.8274C144.842 52.4596 145.341 52.2529 145.861 52.2529H214.204C214.724 52.2529 215.223 52.4596 215.591 52.8274C215.959 53.1953 216.166 53.6941 216.166 54.2143Z" fill="#C8CAD7"/>
<path d="M145.855 53.7254C146.126 53.7254 146.347 53.505 146.347 53.2333C146.347 52.9615 146.126 52.7412 145.855 52.7412C145.583 52.7412 145.362 52.9615 145.362 53.2333C145.362 53.505 145.583 53.7254 145.855 53.7254Z" fill="#EDEDF4"/>
<path d="M147.327 53.7254C147.599 53.7254 147.819 53.505 147.819 53.2333C147.819 52.9615 147.599 52.7412 147.327 52.7412C147.055 52.7412 146.835 52.9615 146.835 53.2333C146.835 53.505 147.055 53.7254 147.327 53.7254Z" fill="#EDEDF4"/>
<path d="M148.801 53.7254C149.073 53.7254 149.293 53.505 149.293 53.2333C149.293 52.9615 149.073 52.7412 148.801 52.7412C148.529 52.7412 148.309 52.9615 148.309 53.2333C148.309 53.505 148.529 53.7254 148.801 53.7254Z" fill="#EDEDF4"/>
</g>
<defs>
<linearGradient id="paint0_linear" x1="133.025" y1="160.953" x2="133.823" y2="160.953" gradientUnits="userSpaceOnUse">
<stop stop-color="#808080" stop-opacity="0.25"/>
<stop offset="0.54" stop-color="#808080" stop-opacity="0.12"/>
<stop offset="1" stop-color="#808080" stop-opacity="0.1"/>
</linearGradient>
<clipPath id="clip0">
<rect width="389" height="254" fill="white"/>
</clipPath>
</defs>
</svg>
