<svg width="22" height="24" viewBox="0 0 22 24" fill="none" xmlns="http://www.w3.org/2000/svg">
<path d="M19.8162 3.12106H19.5315C20.0743 2.23734 19.8738 1.05091 19.0027 0.404557C18.064 -0.291806 16.7301 -0.067654 16.075 0.911267L14.5963 3.1211H1.89358C0.849455 3.1211 0 3.97056 0 5.01468V17.1211C0 18.1652 0.849455 19.0146 1.89358 19.0146H9.2488L8.69306 21.3488H7.49359C6.71187 21.3488 6.07588 21.9848 6.07588 22.7665V23.0625H4.59723C4.33835 23.0625 4.12849 23.2724 4.12849 23.5313C4.12849 23.7901 4.33835 24 4.59723 24H17.1126C17.3715 24 17.5813 23.7901 17.5813 23.5313C17.5813 23.2724 17.3715 23.0625 17.1126 23.0625H15.634V22.7665C15.634 21.9848 14.998 21.3488 14.2162 21.3488H13.0168L12.461 19.0146H19.8163C20.8604 19.0146 21.7098 18.1652 21.7098 17.1211V14.4572V5.01464C21.7098 3.97051 20.8604 3.12106 19.8162 3.12106ZM13.1 11.3615C12.3671 11.8745 10.9941 11.1772 9.68295 11.8768C9.36303 10.2149 9.56473 8.65189 11.2299 8.30689C11.4451 8.26203 11.6768 8.24174 11.8741 8.24567C12.4377 8.66384 13.0078 9.08679 13.5698 9.50383C13.8158 10.2195 13.7235 10.9251 13.1 11.3615ZM13.5724 6.33714L14.8992 7.3216L13.8788 8.56568C13.4588 8.25402 13.0976 7.98609 12.6776 7.67437C12.7648 7.54401 13.4926 6.45625 13.5724 6.33714ZM16.8542 1.43265C17.2093 0.901986 17.9333 0.778519 18.4441 1.1575C18.955 1.53652 19.0465 2.26523 18.6416 2.75886C17.9233 3.63461 16.2155 5.71681 15.4944 6.59594L14.0943 5.55711L16.8542 1.43265ZM14.6964 22.7665V23.0625H7.01337V22.7665C7.01337 22.5018 7.2288 22.2863 7.49359 22.2863H14.2162C14.481 22.2863 14.6964 22.5018 14.6964 22.7665ZM12.053 21.3488H9.65674L10.2125 19.0146H11.4973L12.053 21.3488ZM20.7724 17.1211C20.7724 17.6483 20.3435 18.0772 19.8163 18.0772C19.0722 18.0772 2.73024 18.0772 1.89362 18.0772C1.36643 18.0772 0.937531 17.6483 0.937531 17.1211V14.926H2.27701C2.53589 14.926 2.74575 14.716 2.74575 14.4572C2.74575 14.1984 2.53589 13.9885 2.27701 13.9885H0.937437V5.01464C0.937437 4.48744 1.36634 4.05854 1.89353 4.05854H13.969C13.52 4.72964 12.2099 6.68748 11.7949 7.30758C10.8763 7.31588 9.95922 7.63589 9.35886 8.33675C8.54189 9.29041 8.39836 10.7889 8.93226 12.7905C9.02352 13.1328 9.45059 13.2554 9.70901 13.0086C10.921 11.8504 12.4306 13.1137 13.7824 12.0196C14.6076 11.3516 14.8028 10.2897 14.4917 9.29673C14.9123 8.78393 18.3665 4.57256 18.7881 4.05854H19.8162C20.3434 4.05854 20.7723 4.48744 20.7723 5.01464V13.9884H6.02685C5.76797 13.9884 5.55811 14.1983 5.55811 14.4572C5.55811 14.716 5.76797 14.9259 6.02685 14.9259H20.7724V17.1211Z" fill="#536DFE"/>
<path d="M4.06145 13.9975C3.83579 14.0436 3.68457 14.2386 3.68457 14.4573C3.68457 14.7506 3.95265 14.9751 4.24473 14.9167C4.50428 14.864 4.66239 14.6139 4.6127 14.3655C4.56053 14.1091 4.31181 13.9471 4.06145 13.9975Z" fill="#536DFE"/>
</svg>
