<svg width="24" height="21" viewBox="0 0 24 21" fill="none" xmlns="http://www.w3.org/2000/svg">
<path d="M12.0001 8.3855C13.1577 8.3855 14.0996 9.3278 14.0996 10.4854C14.0996 11.6435 13.1577 12.5854 12.0001 12.5854C10.8421 12.5854 9.90018 11.6435 9.90018 10.4854C9.90018 9.32788 10.8421 8.3855 12.0001 8.3855Z" fill="#536DFE"/>
<path d="M0.000593185 10.7456C-0.0155106 10.0185 0.297197 9.31906 0.92968 8.66675C0.92968 8.66637 0.92968 8.66508 0.92968 8.66508C0.92968 8.04498 1.4341 7.54056 2.05466 7.54056C2.15963 7.54056 2.26369 7.55499 2.36448 7.58477C2.75238 7.36085 3.17713 7.15265 3.62906 6.96383C3.93023 6.83827 4.27187 6.71264 4.66646 6.58208C3.82244 3.52532 4.13105 1.27301 5.52575 0.379397C6.98736 -0.559261 9.40586 0.268274 12.0003 2.62312C14.5939 0.269565 17.0098 -0.561236 18.4748 0.379397C19.3622 0.947848 19.8191 2.07283 19.8017 3.63941C20.0794 3.84965 20.2462 4.17732 20.2462 4.5309C20.2462 4.97752 19.9827 5.37324 19.5856 5.55296C19.5373 5.78925 19.477 6.045 19.4026 6.32717C22.2945 7.20301 23.9643 8.6151 23.9994 10.2258C24.0312 11.6735 22.7427 13.0169 20.3718 14.0072C20.069 14.1344 19.7253 14.2604 19.3278 14.3914C19.4397 14.7909 19.5261 15.1461 19.591 15.4725C20.0908 17.993 19.6943 19.8112 18.4743 20.5932C17.0048 21.5319 14.5917 20.7014 11.9997 18.3483C10.1254 20.0495 8.3361 20.9836 6.94141 20.9845C6.40767 20.9845 5.93127 20.8531 5.52476 20.5928C4.30522 19.8112 3.90903 17.993 4.4089 15.4725C4.45804 15.2251 4.52169 14.9524 4.60182 14.6471C1.70761 13.7705 0.0356846 12.3577 0.000593185 10.7456ZM17.8642 19.6381C18.6408 19.1407 18.8714 17.6654 18.4802 15.6923C18.4228 15.4036 18.3451 15.0834 18.2434 14.7198C17.166 15.0074 15.9878 15.2238 14.7331 15.3634C14.1118 16.1624 13.4693 16.8994 12.8199 17.5596C14.9116 19.4428 16.8801 20.2677 17.8642 19.6381ZM17.8642 1.33294C16.883 0.707449 14.9116 1.52876 12.8199 3.41223C13.4417 4.04387 14.0564 4.74456 14.6497 5.49979C15.9527 5.59359 17.1768 5.77201 18.2959 6.03231C18.3476 5.82989 18.395 5.62785 18.4384 5.42087C18.1645 5.211 17.9976 4.88257 17.9976 4.53097C17.9976 4.08314 18.2654 3.68407 18.6603 3.50519C18.6599 2.70288 18.5082 1.74561 17.8642 1.33294ZM17.9125 13.6367C17.6972 13.0137 17.4407 12.3758 17.1466 11.7325C16.8636 12.2358 16.5657 12.7319 16.2571 13.2132C16.0704 13.5053 15.875 13.7978 15.6668 14.0965C16.4636 13.9742 17.2156 13.8205 17.9125 13.6367ZM16.2567 7.75825C16.5669 8.24284 16.8639 8.73656 17.1424 9.23148C17.4613 8.52631 17.7373 7.82395 17.9674 7.13237C17.2139 6.95889 16.4095 6.82293 15.5643 6.7267C15.8039 7.06751 16.0353 7.41288 16.2567 7.75825ZM16.5273 10.482C16.1452 9.75163 15.7337 9.04228 15.3028 8.36931C14.9302 7.78764 14.5137 7.19314 14.0643 6.59909C13.3546 6.55944 12.6398 6.54744 11.9152 6.564C11.2319 6.57889 10.5453 6.6177 9.87435 6.68089C9.44839 7.24813 9.05267 7.81491 8.69735 8.36893C8.26683 9.04152 7.855 9.75208 7.47325 10.4821C7.85956 11.2233 8.27101 11.9359 8.69735 12.6019C9.07203 13.1864 9.48766 13.7809 9.9355 14.3717C10.6448 14.4105 11.3588 14.4221 12.0854 14.4064C12.767 14.3924 13.4528 14.3531 14.1263 14.2899C14.5531 13.7223 14.948 13.1546 15.3028 12.6019C15.7287 11.9371 16.1402 11.2244 16.5273 10.482ZM8.43659 14.2448C8.19657 13.9023 7.96399 13.5573 7.7438 13.2132C7.43481 12.7307 7.13654 12.2345 6.85436 11.7318C6.53132 12.4415 6.25204 13.1459 6.02272 13.8363C6.77917 14.0114 7.58764 14.1481 8.43659 14.2448ZM7.7438 7.75825C7.93263 7.46331 8.12798 7.17081 8.33458 6.87458C7.54305 6.99603 6.7936 7.14931 6.0967 7.33275C6.31196 7.95452 6.56687 8.59072 6.85808 9.23186C7.1357 8.73823 7.43231 8.24497 7.7438 7.75825ZM5.76577 6.24916C6.84365 5.96205 8.01982 5.74725 9.26747 5.60802C9.88878 4.80905 10.5308 4.07205 11.1806 3.41268C9.08897 1.52921 7.11588 0.707904 6.13597 1.3334C5.2122 1.92532 5.07791 3.75258 5.76577 6.24916ZM11.8904 5.43112C12.1089 5.42657 12.3267 5.42414 12.5423 5.42414C12.7381 5.42414 12.9327 5.42581 13.1256 5.42991C12.7559 4.99696 12.3795 4.58589 11.9994 4.20125C11.6041 4.60237 11.2137 5.02871 10.8336 5.47616C11.2062 5.45345 11.5562 5.43902 11.8904 5.43112ZM19.0834 7.42777C18.7632 8.39696 18.3327 9.42441 17.8027 10.4882C18.286 11.4608 18.6872 12.4076 18.9962 13.3082C19.3539 13.1901 19.6625 13.0757 19.9356 12.962C21.7918 12.1866 22.8878 11.1732 22.8672 10.2503C22.8444 9.18644 21.4361 8.14084 19.0834 7.42777ZM12.1093 15.54C11.6933 15.5486 11.2802 15.5495 10.8741 15.5412C11.2438 15.9741 11.6206 16.3856 12.0003 16.7711C12.3944 16.3715 12.7848 15.9452 13.1665 15.4953C12.7889 15.518 12.4436 15.5325 12.1093 15.54ZM9.35087 15.4722C8.04747 15.3789 6.82048 15.1995 5.69672 14.9376C5.62358 15.2173 5.56532 15.4656 5.5199 15.6929C5.12865 17.6651 5.35834 19.1404 6.13506 19.6382C7.11831 20.2678 9.08852 19.4416 11.1802 17.5602C10.5592 16.9293 9.94537 16.229 9.35087 15.4722ZM4.92631 13.5458C5.25064 12.5613 5.67735 11.5351 6.19833 10.4874C5.71662 9.5211 5.31421 8.5734 5.00188 7.66452C4.64208 7.78392 4.33925 7.89542 4.06535 8.00951C3.74353 8.14463 3.43864 8.28963 3.15525 8.44208C3.17097 8.5156 3.1788 8.58996 3.1788 8.66478C3.1788 9.2845 2.67392 9.78892 2.05466 9.78892C1.88034 9.78892 1.71012 9.74805 1.55639 9.67073C1.26761 10.0281 1.12549 10.3805 1.13332 10.7213C1.15527 11.7859 2.5669 12.8319 4.92631 13.5458Z" fill="#536DFE"/>
</svg>
