<svg width="551" height="467" viewBox="0 0 551 467" fill="none" xmlns="http://www.w3.org/2000/svg">
<g clip-path="url(#clip0)">
<path d="M531.716 195.509C504.162 230.719 452.167 238.782 409.146 226.518C395.07 222.408 381.49 216.759 368.652 209.674C361.195 205.628 353.917 201.189 346.788 196.46C345.033 195.301 343.279 194.125 341.543 192.925C340.36 192.117 339.18 191.299 338.005 190.471C323.282 180.121 309.136 168.767 295.228 157.478C260.507 129.297 224.836 100.249 182.177 86.8033C173.389 84.0346 162.019 82.7393 156.585 90.1781C151.869 96.6365 154.747 105.781 158.737 112.708C173.537 138.37 200.402 154.572 227.292 167.032C254.18 179.491 282.663 189.586 306.038 207.802C329.413 226.019 347.257 254.972 342.477 284.199C338.356 309.385 317.776 329.847 293.848 338.766C269.92 347.678 243.234 346.436 218.36 340.649C193.487 334.856 169.874 324.749 145.869 316.039C131.396 310.781 112.475 307.145 102.872 319.176C94.7614 329.342 99.4231 345.378 109.3 353.839C119.176 362.3 132.544 365.134 145.298 367.677C184.901 375.579 224.503 383.479 264.105 391.378C276.253 393.796 288.687 396.327 299.271 402.768C309.855 409.202 318.394 420.444 318.091 432.82C317.788 445.018 308.851 455.796 297.897 461.197C286.95 466.591 274.309 467.423 262.113 466.841C216.41 464.655 85.3841 392.103 53.958 382.828C33.7645 376.874 11.6861 368.129 3.17091 348.89C-7.43132 324.94 10.0152 295.963 33.8299 285.024C57.6387 274.08 85.2413 276.504 111.191 280.188C137.14 283.872 163.946 288.56 189.206 281.561C214.465 274.561 237.608 251.746 235.117 225.675C232.946 202.99 212.497 185.896 190.978 178.362C174.132 172.462 156.21 170.858 138.514 168.202C133.602 167.471 128.708 166.651 123.862 165.641C111.451 163.043 99.3447 159.16 87.7388 154.055C75.5598 148.71 63.9897 142.075 53.2267 134.264C44.6422 128.044 36.6198 121.083 29.2515 113.463C28.1275 112.298 27.0155 111.108 25.9154 109.892C24.869 108.728 23.8342 107.539 22.8235 106.327C9.67033 90.6237 -0.0460715 71.2841 2.86783 51.3562C5.77534 31.4818 21.2775 14.9347 39.7347 6.98494C50.4022 2.39214 61.9083 0.336376 73.5569 0.0393001C82.0745 -0.130793 90.5896 0.481782 98.9949 1.86929C137.89 8.08412 173.531 26.9663 207.193 47.4111C240.849 67.8558 273.649 90.297 310.236 104.872C346.823 119.452 388.471 125.625 425.588 112.441C462.704 99.2627 493.196 63.3046 491.383 23.9896C516 45.1711 536.919 71.7951 546.184 102.905C555.448 134.015 551.726 169.937 531.716 195.509Z" fill="#3F3D56"/>
<path d="M354.344 154.879C356.734 154.879 358.672 152.943 358.672 150.554C358.672 148.166 356.734 146.23 354.344 146.23C351.954 146.23 350.017 148.166 350.017 150.554C350.017 152.943 351.954 154.879 354.344 154.879Z" fill="#536DFE"/>
<path d="M507.163 100.201C510.859 100.201 513.854 97.2081 513.854 93.5159C513.854 89.8236 510.859 86.8305 507.163 86.8305C503.468 86.8305 500.473 89.8236 500.473 93.5159C500.473 97.2081 503.468 100.201 507.163 100.201Z" fill="#FF6584"/>
<path d="M68.3286 306.316C69.6939 306.316 70.8007 305.21 70.8007 303.846C70.8007 302.482 69.6939 301.376 68.3286 301.376C66.9633 301.376 65.8564 302.482 65.8564 303.846C65.8564 305.21 66.9633 306.316 68.3286 306.316Z" fill="#FF6584"/>
<path d="M139.287 161.845C139.289 163.987 139.029 166.122 138.514 168.202C133.603 167.471 128.709 166.652 123.863 165.641C111.452 163.043 99.3452 159.16 87.7393 154.056C89.6056 148.034 93.5708 142.882 98.9149 139.532C104.259 136.183 110.628 134.86 116.865 135.802C123.103 136.745 128.795 139.891 132.909 144.669C137.023 149.448 139.286 155.542 139.287 161.845Z" fill="#FF6584"/>
<path d="M464.35 139.415C465.746 139.415 466.878 138.284 466.878 136.889C466.878 135.494 465.746 134.363 464.35 134.363C462.953 134.363 461.821 135.494 461.821 136.889C461.821 138.284 462.953 139.415 464.35 139.415Z" fill="#F0F0F0"/>
<path d="M233.04 417.479C234.436 417.479 235.568 416.348 235.568 414.952C235.568 413.557 234.436 412.426 233.04 412.426C231.644 412.426 230.512 413.557 230.512 414.952C230.512 416.348 231.644 417.479 233.04 417.479Z" fill="#F0F0F0"/>
<path d="M269.313 452.534C270.709 452.534 271.841 451.403 271.841 450.007C271.841 448.612 270.709 447.481 269.313 447.481C267.916 447.481 266.784 448.612 266.784 450.007C266.784 451.403 267.916 452.534 269.313 452.534Z" fill="#F0F0F0"/>
<path d="M45.1387 352.716C46.535 352.716 47.667 351.585 47.667 350.19C47.667 348.794 46.535 347.663 45.1387 347.663C43.7423 347.663 42.6104 348.794 42.6104 350.19C42.6104 351.585 43.7423 352.716 45.1387 352.716Z" fill="#F0F0F0"/>
<path d="M169.415 305.778C170.811 305.778 171.943 304.647 171.943 303.252C171.943 301.856 170.811 300.725 169.415 300.725C168.019 300.725 166.887 301.856 166.887 303.252C166.887 304.647 168.019 305.778 169.415 305.778Z" fill="#F0F0F0"/>
<path d="M156.929 55.0457C158.325 55.0457 159.457 53.9146 159.457 52.5193C159.457 51.1241 158.325 49.993 156.929 49.993C155.532 49.993 154.4 51.1241 154.4 52.5193C154.4 53.9146 155.532 55.0457 156.929 55.0457Z" fill="#F0F0F0"/>
<path d="M309.747 252.898C311.143 252.898 312.275 251.767 312.275 250.372C312.275 248.977 311.143 247.846 309.747 247.846C308.351 247.846 307.219 248.977 307.219 250.372C307.219 251.767 308.351 252.898 309.747 252.898Z" fill="#F0F0F0"/>
<path d="M328.775 296.866C330.172 296.866 331.304 295.735 331.304 294.339C331.304 292.944 330.172 291.813 328.775 291.813C327.379 291.813 326.247 292.944 326.247 294.339C326.247 295.735 327.379 296.866 328.775 296.866Z" fill="#F0F0F0"/>
<path d="M100.874 60.5835C100.893 73.3391 97.8763 85.9165 92.0738 97.2783C91.3067 98.7756 90.494 100.247 89.6357 101.693C81.1384 116.031 68.4251 127.405 53.2268 134.264C44.6423 128.044 36.6199 121.083 29.2515 113.463C28.1276 112.299 27.0156 111.108 25.9155 109.892C24.8691 108.728 23.8343 107.539 22.8236 106.327C9.6704 90.6238 -0.0459914 71.2842 2.86791 51.3563C5.77542 31.4819 21.2775 14.9347 39.7347 6.98497C50.4023 2.39218 61.9083 0.336444 73.557 0.0393677C82.6651 8.0765 89.8454 18.0595 94.5652 29.2479C95.1598 30.656 95.7068 32.082 96.2242 33.5258C99.3102 42.2133 100.883 51.365 100.874 60.5835Z" fill="#536DFE"/>
<path d="M137.741 64.7426C137.741 77.1188 125.646 88.5978 103.681 97.0763C99.2861 98.7756 94.5826 100.314 89.6354 101.693C71.1186 106.85 49.0817 109.708 25.9151 109.892C24.8687 108.728 23.8339 107.539 22.8232 106.327C23.0729 106.333 23.3226 106.333 23.5723 106.333C48.731 106.333 72.5994 103.149 92.0734 97.2783C95.6708 96.191 99.1198 95.0146 102.396 93.7491C122.59 85.9597 134.173 75.3838 134.173 64.7426C134.173 54.1013 122.59 43.5313 102.396 35.736C100.398 34.9636 98.3408 34.2269 96.2239 33.5258C95.7065 32.082 95.1595 30.656 94.5649 29.2479C97.7282 30.2342 100.767 31.2878 103.681 32.4088C125.646 40.8873 137.741 52.3723 137.741 64.7426Z" fill="#E4E4E4"/>
<path d="M27.2998 20.5848C28.6962 20.5848 29.8282 19.4538 29.8282 18.0585C29.8282 16.6633 28.6962 15.5322 27.2998 15.5322C25.9035 15.5322 24.7715 16.6633 24.7715 18.0585C24.7715 19.4538 25.9035 20.5848 27.2998 20.5848Z" fill="#F0F0F0"/>
<path d="M80.2217 36.627C81.618 36.627 82.75 35.4959 82.75 34.1006C82.75 32.7054 81.618 31.5743 80.2217 31.5743C78.8253 31.5743 77.6934 32.7054 77.6934 34.1006C77.6934 35.4959 78.8253 36.627 80.2217 36.627Z" fill="#F0F0F0"/>
<path d="M52.8691 84.2165C66.448 84.2165 77.456 73.2173 77.456 59.6492C77.456 46.081 66.448 35.0819 52.8691 35.0819C39.2901 35.0819 28.2822 46.081 28.2822 59.6492C28.2822 73.2173 39.2901 84.2165 52.8691 84.2165Z" fill="#F0F0F0"/>
<path opacity="0.3" d="M506.926 189.675C501.408 191.303 489.242 192.503 475.863 193.24C462.49 193.971 447.82 194.292 433.335 194.601C407.981 195.147 382.628 195.696 357.277 196.246C353.792 196.324 350.296 196.395 346.787 196.46C345.033 195.302 343.279 194.125 341.543 192.925C344.653 192.943 347.763 192.925 350.849 192.866C364.032 192.604 375.193 191.576 387.906 191.089C407.469 190.335 428.59 190.929 448.98 191.232C469.37 191.541 492.602 191.428 506.926 189.675Z" fill="#F0F0F0"/>
<path opacity="0.3" d="M117.786 376.97L36.9639 309.694L115.481 379.665C115.633 379.921 115.844 380.137 116.096 380.295C116.349 380.453 116.635 380.549 116.932 380.574C117.229 380.6 117.527 380.554 117.803 380.441C118.078 380.328 118.323 380.152 118.517 379.925C118.71 379.699 118.847 379.43 118.916 379.14C118.984 378.851 118.983 378.549 118.911 378.26C118.84 377.971 118.701 377.703 118.505 377.479C118.309 377.255 118.063 377.08 117.786 376.97H117.786Z" fill="#F0F0F0"/>
<path d="M56.4365 122.185C57.8329 122.185 58.9649 121.054 58.9649 119.659C58.9649 118.263 57.8329 117.132 56.4365 117.132C55.0402 117.132 53.9082 118.263 53.9082 119.659C53.9082 121.054 55.0402 122.185 56.4365 122.185Z" fill="#F0F0F0"/>
<path d="M268.781 412.386L279.239 412.385L284.214 372.08L268.779 372.08L268.781 412.386Z" fill="#FFB6B6"/>
<path d="M266.113 408.974L269.057 408.974L280.549 404.304L286.709 408.973H286.709C290.19 408.973 293.528 410.355 295.99 412.814C298.451 415.274 299.834 418.609 299.834 422.087V422.513L266.114 422.515L266.113 408.974Z" fill="#2F2E41"/>
<path d="M190.463 412.386L180.006 412.385L175.03 372.08L190.465 372.08L190.463 412.386Z" fill="#FFB6B6"/>
<path d="M193.131 422.515L159.41 422.513V422.087C159.41 418.609 160.793 415.274 163.255 412.814C165.716 410.355 169.054 408.973 172.535 408.973H172.536L178.695 404.304L190.188 408.974L193.131 408.974L193.131 422.515Z" fill="#2F2E41"/>
<path d="M227.935 103.494L217.346 111.551L189.217 118.994C189.217 118.994 199.296 189.675 194.539 194.428C189.782 199.181 194.072 199.309 193.117 205.484C192.161 211.659 188.352 227.961 188.352 227.961H272.306C272.306 227.961 272.982 217.829 268.844 215.635C264.705 213.441 272.659 203.2 269.276 201.488C265.894 199.776 270.651 184.922 270.651 184.922L280.961 136.291L253.54 114.854L249.37 104.814L227.935 103.494Z" fill="#536DFE"/>
<path d="M241.148 166.654C243.172 166.654 244.812 165.015 244.812 162.993C244.812 160.971 243.172 159.332 241.148 159.332C239.125 159.332 237.484 160.971 237.484 162.993C237.484 165.015 239.125 166.654 241.148 166.654Z" fill="#F2F2F2"/>
<path d="M188.352 227.961L184.89 317.037C184.89 317.037 169.942 382.827 172.538 384.557C175.135 386.287 176.235 396.6 176.235 396.6L190.948 398.33C190.948 398.33 190.948 391.411 194.41 388.817C197.872 386.222 229.896 264.283 229.896 264.283L261.138 382.18C261.138 382.18 261.92 388.817 264.516 388.817C267.113 388.817 267.978 398.33 267.978 398.33H282.692V388.817C282.692 388.817 289.303 386.722 286.707 379.804C284.11 372.885 272.306 227.961 272.306 227.961H188.352Z" fill="#2F2E41"/>
<path d="M238.931 98.186C248.73 98.186 256.674 90.2486 256.674 80.4573C256.674 70.666 248.73 62.7286 238.931 62.7286C229.132 62.7286 221.188 70.666 221.188 80.4573C221.188 90.2486 229.132 98.186 238.931 98.186Z" fill="#FFB6B6"/>
<path opacity="0.1" d="M269.276 160.073L272.738 162.668L274.469 150.56L269.276 160.073Z" fill="black"/>
<path d="M190.877 118.926C190.877 118.926 186.55 118.061 183.953 125.844C181.356 133.627 171.836 163.031 171.836 168.22C171.836 173.409 231.126 196.304 231.126 196.304L224.957 174.679L197.801 160.437L190.877 118.926Z" fill="#536DFE"/>
<path d="M233.876 193.098C239.459 193.098 243.985 188.575 243.985 182.997C243.985 177.419 239.459 172.896 233.876 172.896C228.293 172.896 223.768 177.419 223.768 182.997C223.768 188.575 228.293 193.098 233.876 193.098Z" fill="#FFB6B6"/>
<path opacity="0.1" d="M197.009 149.725L197.8 160.437L222.912 173.607L200.577 158.637L197.009 149.725Z" fill="black"/>
<path d="M257.378 151.252H257.052V142.335C257.052 141.657 256.919 140.986 256.659 140.359C256.399 139.733 256.019 139.164 255.539 138.685C255.06 138.206 254.49 137.826 253.864 137.566C253.237 137.307 252.565 137.173 251.887 137.173H232.98C232.301 137.173 231.63 137.307 231.003 137.566C230.376 137.826 229.807 138.206 229.327 138.685C228.848 139.164 228.467 139.733 228.208 140.359C227.948 140.986 227.814 141.657 227.814 142.334V191.255C227.814 191.933 227.948 192.604 228.208 193.23C228.467 193.856 228.848 194.425 229.327 194.904C229.807 195.384 230.376 195.764 231.003 196.023C231.63 196.282 232.301 196.416 232.98 196.416H251.887C252.565 196.416 253.237 196.283 253.864 196.023C254.49 195.764 255.06 195.384 255.539 194.904C256.019 194.425 256.399 193.856 256.659 193.23C256.918 192.604 257.052 191.933 257.052 191.255V157.599H257.378V151.252Z" fill="#F0F0F0"/>
<path d="M280.961 136.291C280.961 136.291 283.557 138.02 285.288 145.804C287.019 153.587 298.271 182.991 293.943 189.909C289.616 196.828 288.338 204.212 273.625 193.834L253.265 175.207L267.978 161.37L274.037 165.694L280.961 136.291Z" fill="#536DFE"/>
<path d="M242.664 158.977C245.054 158.977 246.992 157.041 246.992 154.653C246.992 152.265 245.054 150.329 242.664 150.329C240.274 150.329 238.337 152.265 238.337 154.653C238.337 157.041 240.274 158.977 242.664 158.977Z" fill="#536DFE"/>
<path d="M255.192 174.227C260.775 174.227 265.3 169.705 265.3 164.126C265.3 158.548 260.775 154.026 255.192 154.026C249.609 154.026 245.083 158.548 245.083 164.126C245.083 169.705 249.609 174.227 255.192 174.227Z" fill="#FFB6B6"/>
<path opacity="0.1" d="M196.532 182.054L225.551 194.88L195.726 189.056L196.532 182.054Z" fill="black"/>
<path d="M221.03 83.9904L218.594 74.7265C217.959 72.3093 217.318 69.8432 217.461 67.3481C217.603 64.853 218.663 62.2782 220.766 60.9264C222.87 59.5747 226.082 59.894 227.435 61.9955C227.693 58.6399 230.748 56.0588 233.989 55.1444C237.231 54.23 240.672 54.5916 244.037 54.7459C247.401 54.9002 250.953 54.7925 253.857 53.0874C254.078 53.7509 254.063 54.4703 253.815 55.1242C253.567 55.7781 253.101 56.3266 252.495 56.6769C253.217 56.8737 253.987 56.7891 254.649 56.4404C255.311 56.0916 255.815 55.5046 256.06 54.7982C256.082 56.7415 255.364 58.6205 254.05 60.0536C255.303 59.4325 256.743 59.2993 258.089 59.6801C259.435 60.0609 260.591 60.9285 261.332 62.1139C262.814 64.6811 261.983 67.9051 261.116 70.7393L256.666 85.2856C255.991 83.0743 255.864 80.7397 255.503 78.4562C255.142 76.1728 254.5 73.8408 252.991 72.088C251.483 70.3352 248.92 69.3202 246.777 70.1904C245.574 70.6787 244.657 71.6693 243.571 72.3803C241.344 73.8391 238.51 74.0483 235.863 73.7514C233.216 73.4546 230.637 72.7015 227.99 72.4007C226.333 72.2123 224.484 72.2622 223.234 73.365C222.374 74.2577 221.806 75.3906 221.606 76.6134C221.016 79.0505 220.784 81.5605 220.917 84.0644" fill="#2F2E41"/>
</g>
<defs>
<clipPath id="clip0">
<rect width="551" height="467" fill="white"/>
</clipPath>
</defs>
</svg>
