<svg width="24" height="24" viewBox="0 0 24 24" fill="none" xmlns="http://www.w3.org/2000/svg">
<path d="M12.0004 5.98877C8.6858 5.98877 5.98926 8.68585 5.98926 12.0005C5.98926 15.3151 8.6858 18.0122 12.0004 18.0122C15.3145 18.0122 18.0116 15.3156 18.0116 12.0005C18.0116 8.68531 15.3145 5.98877 12.0004 5.98877Z" fill="white"/>
<path d="M12 4.22179C11.3522 4.22179 10.8271 3.69672 10.8271 3.04942V1.1729C10.8271 0.525066 11.3522 0 12 0C12.6479 0 13.1729 0.525066 13.1729 1.1729V3.04942C13.1729 3.69672 12.6473 4.22179 12 4.22179Z" fill="white"/>
<path d="M12 19.7778C11.3522 19.7778 10.8271 20.3029 10.8271 20.9507V22.8267C10.8271 23.4751 11.3522 24.0002 12 24.0002C12.6479 24.0002 13.1729 23.4751 13.1729 22.8267V20.9507C13.1729 20.3029 12.6473 19.7778 12 19.7778Z" fill="white"/>
<path d="M17.4994 6.50022C17.0419 6.04211 17.0419 5.29969 17.4994 4.84158L18.8264 3.51457C19.284 3.05699 20.027 3.05699 20.4851 3.51457C20.9432 3.97267 20.9432 4.71563 20.4851 5.1732L19.1581 6.50022C18.7005 6.95832 17.9581 6.95832 17.4994 6.50022Z" fill="white"/>
<path d="M6.49993 17.5002C6.04182 17.0416 5.2994 17.0416 4.84129 17.5002L3.51428 18.8267C3.0567 19.2843 3.05617 20.0278 3.51428 20.4853C3.97238 20.9429 4.71534 20.9429 5.17291 20.4853L6.49993 19.1578C6.95803 18.7002 6.95803 17.9573 6.49993 17.5002Z" fill="white"/>
<path d="M19.7773 12C19.7773 11.3522 20.3024 10.8271 20.9502 10.8271H22.8268C23.4746 10.8271 23.9997 11.3522 23.9997 12C23.9997 12.6479 23.4746 13.1724 22.8268 13.1724H20.9502C20.3024 13.1724 19.7773 12.6479 19.7773 12Z" fill="white"/>
<path d="M4.22179 12C4.22179 11.3522 3.69672 10.8271 3.04889 10.8271H1.1729C0.525066 10.8271 0 11.3522 0 12C0 12.6479 0.525066 13.1724 1.1729 13.1724H3.04942C3.69672 13.1724 4.22179 12.6479 4.22179 12Z" fill="white"/>
<path d="M17.4998 17.5004C17.9579 17.0428 18.7009 17.0428 19.1585 17.5004L20.4855 18.8274C20.9436 19.2845 20.9436 20.028 20.4855 20.4855C20.0274 20.9431 19.2849 20.9431 18.8268 20.4855L17.4998 19.1585C17.0417 18.7004 17.0417 17.958 17.4998 17.5004Z" fill="white"/>
<path d="M6.50013 6.50008C6.95823 6.04198 6.95823 5.29955 6.50013 4.84145L5.17311 3.51497C4.71501 3.05686 3.97258 3.05686 3.51448 3.51497C3.05637 3.97254 3.05637 4.7155 3.51448 5.17307L4.84149 6.50008C5.2996 6.95872 6.04202 6.95872 6.50013 6.50008Z" fill="white"/>
</svg>
