<svg width="67" height="45" viewBox="0 0 67 45" fill="none" xmlns="http://www.w3.org/2000/svg">
<path d="M0 0H12.1173L21.2699 17.1111L14.4475 28L0 0Z" fill="#536DFE"/>
<path d="M43.5518 0H31.6589L22.2818 17.1111L28.9779 28L43.5518 0Z" fill="#536DFE"/>
<path d="M23.2959 0H32.4116L29.2409 6L23.2959 0Z" fill="#536DFE"/>
<path d="M16.2051 29.5L21.7758 20L27.3465 29.5L21.7758 39L16.2051 29.5Z" fill="#536DFE"/>
<path d="M21.7758 20V29.5M21.7758 20L16.2051 29.5M21.7758 20L27.3465 29.5M21.7758 39V29.5M21.7758 39L27.3465 29.5M21.7758 39L16.2051 29.5M21.7758 29.5H27.3465M27.3465 29.5H16.2051" stroke="#536DFE" stroke-width="2"/>
<path d="M40.8873 18.21H45.5673V39H40.8873V18.21ZM65.7995 18.21V22.2H59.5295V39H54.8495V22.2H48.5795V18.21H65.7995Z" fill="#536DFE"/>
</svg>
