<svg width="24" height="24" viewBox="0 0 24 24" fill="none" xmlns="http://www.w3.org/2000/svg">
<path d="M22.9888 17.3664C22.7744 17.1024 22.4144 17.0048 22.0976 17.1184C21.2096 17.4368 20.2464 17.6 19.232 17.6C14.3792 17.6 10.432 13.6512 10.432 8.8C10.432 5.88 11.8736 3.1616 14.288 1.5264C14.5616 1.3408 14.6928 1.0064 14.6192 0.6848C14.5456 0.3632 14.2816 0.12 13.9536 0.072C13.5792 0.0176 13.2064 0 12.832 0C6.21443 0 0.832031 5.3824 0.832031 12C0.832031 18.6176 6.21443 24 12.832 24C17.032 24 20.8528 21.8656 23.0496 18.2912C23.2272 18.0016 23.2016 17.632 22.9888 17.3664Z" fill="#212529"/>
</svg>
